<?xml version="1.0" encoding="UTF-8"?><svg id="Layer_2" xmlns="http://www.w3.org/2000/svg" xmlns:xlink="http://www.w3.org/1999/xlink" viewBox="0 0 662.37 294.44"><defs><style>.cls-1{clip-path:url(#clippath);}.cls-2{fill:#fff;}</style><clipPath id="clippath"><path class="cls-2" d="M303.91,208.44c-5.11,0-9.25,4.14-9.25,9.25v2.28c0,5.11,4.14,9.25,9.25,9.25h57.7c5.11,0,9.25-4.14,9.25-9.25v-2.28c0-5.11-4.14-9.25-9.25-9.25h-57.7Zm-53.4-27.71c-5.11,0-9.25,4.14-9.25,9.25v2.28c0,5.11,4.14,9.25,9.25,9.25h110.64c5.11,0,9.25-4.14,9.25-9.25v-2.28c0-5.11-4.14-9.25-9.25-9.25h-110.64Zm-72.78-27.71c-4.16,0-7.67,2.74-8.84,6.52v63.17c1.17,3.77,4.68,6.52,8.84,6.52h2.28c5.11,0,9.25-4.14,9.25-9.25v-57.7c0-5.11-4.14-9.25-9.25-9.25h-2.28Zm126.19,0c-5.11,0-9.25,4.14-9.25,9.25v2.28c0,5.11,4.14,9.25,9.25,9.25h57.7c5.11,0,9.25-4.14,9.25-9.25v-2.28c0-5.11-4.14-9.25-9.25-9.25h-57.7Zm86.2,0c-5.11,0-9.25,4.14-9.25,9.25v57.7c0,5.11,4.14,9.25,9.25,9.25h2.28c5.11,0,9.25-4.14,9.25-9.25v-57.7c0-5.11-4.14-9.25-9.25-9.25h-2.28Zm-190.22,38.1c0,26.81,21.8,48.61,48.61,48.61,13.04,0,25.3-5.17,34.32-14.17,3.75-3.74,3.13-9.97-1.29-12.87l-3.77-2.47c-3.23-2.11-7.48-1.72-10.28,.94-5.07,4.81-11.82,7.55-18.97,7.55-15.04,0-27.29-12.08-27.59-27.04-.28-14.35,10.65-26.66,24.93-28.02,8.13-.77,15.93,2.03,21.63,7.42,2.79,2.65,7.04,3,10.25,.89l3.76-2.47c4.43-2.91,5.03-9.13,1.28-12.87-9.01-8.97-21.25-14.12-34.26-14.12-26.81,0-48.61,21.81-48.61,48.61"/></clipPath></defs><g id="Layer_1-2"><g><g><path class="cls-2" d="M303.91,208.44c-5.11,0-9.25,4.14-9.25,9.25v2.28c0,5.11,4.14,9.25,9.25,9.25h57.7c5.11,0,9.25-4.14,9.25-9.25v-2.28c0-5.11-4.14-9.25-9.25-9.25h-57.7Zm-53.4-27.71c-5.11,0-9.25,4.14-9.25,9.25v2.28c0,5.11,4.14,9.25,9.25,9.25h110.64c5.11,0,9.25-4.14,9.25-9.25v-2.28c0-5.11-4.14-9.25-9.25-9.25h-110.64Zm-72.78-27.71c-4.16,0-7.67,2.74-8.84,6.52v63.17c1.17,3.77,4.68,6.52,8.84,6.52h2.28c5.11,0,9.25-4.14,9.25-9.25v-57.7c0-5.11-4.14-9.25-9.25-9.25h-2.28Zm126.19,0c-5.11,0-9.25,4.14-9.25,9.25v2.28c0,5.11,4.14,9.25,9.25,9.25h57.7c5.11,0,9.25-4.14,9.25-9.25v-2.28c0-5.11-4.14-9.25-9.25-9.25h-57.7Zm86.2,0c-5.11,0-9.25,4.14-9.25,9.25v57.7c0,5.11,4.14,9.25,9.25,9.25h2.28c5.11,0,9.25-4.14,9.25-9.25v-57.7c0-5.11-4.14-9.25-9.25-9.25h-2.28Zm-190.22,38.1c0,26.81,21.8,48.61,48.61,48.61,13.04,0,25.3-5.17,34.32-14.17,3.75-3.74,3.13-9.97-1.29-12.87l-3.77-2.47c-3.23-2.11-7.48-1.72-10.28,.94-5.07,4.81-11.82,7.55-18.97,7.55-15.04,0-27.29-12.08-27.59-27.04-.28-14.35,10.65-26.66,24.93-28.02,8.13-.77,15.93,2.03,21.63,7.42,2.79,2.65,7.04,3,10.25,.89l3.76-2.47c4.43-2.91,5.03-9.13,1.28-12.87-9.01-8.97-21.25-14.12-34.26-14.12-26.81,0-48.61,21.81-48.61,48.61"/><g class="cls-1"><rect class="cls-2" x="168.89" y="142.51" width="232.76" height="97.22"/></g></g><rect class="cls-2" x="169.1" y="248.04" width="2.83" height="15.26"/><path class="cls-2" d="M186.15,252.81c.89,.86,1.33,2.13,1.33,3.82v6.67h-2.73v-6.32c0-1.02-.24-1.78-.72-2.3-.48-.52-1.16-.78-2.05-.78-1,0-1.8,.3-2.38,.91-.58,.6-.87,1.47-.87,2.61v5.89h-2.73v-11.64h2.59v1.5c.45-.54,1.02-.94,1.7-1.22,.68-.28,1.45-.41,2.31-.41,1.47,0,2.65,.43,3.53,1.29"/><path class="cls-2" d="M191.99,263.08c-.9-.25-1.62-.56-2.16-.94l1.05-2.07c.52,.35,1.15,.63,1.89,.84,.73,.21,1.46,.32,2.17,.32,1.63,0,2.44-.43,2.44-1.29,0-.41-.21-.69-.62-.85-.41-.16-1.08-.31-1.99-.46-.96-.15-1.74-.31-2.35-.5-.6-.19-1.12-.52-1.57-.99-.44-.47-.66-1.13-.66-1.97,0-1.1,.46-1.99,1.38-2.65,.92-.66,2.17-.99,3.74-.99,.8,0,1.6,.09,2.4,.27,.8,.18,1.45,.43,1.96,.73l-1.04,2.07c-.99-.58-2.1-.87-3.34-.87-.8,0-1.41,.12-1.82,.36-.41,.24-.62,.55-.62,.95,0,.44,.22,.74,.66,.93,.44,.18,1.13,.35,2.06,.51,.93,.15,1.69,.31,2.29,.5,.6,.19,1.11,.51,1.54,.96,.43,.45,.64,1.09,.64,1.92,0,1.09-.47,1.96-1.42,2.62-.95,.66-2.23,.98-3.86,.98-.95,0-1.87-.12-2.77-.37"/><path class="cls-2" d="M209.61,262.66c-.32,.26-.71,.46-1.17,.59-.46,.13-.94,.2-1.45,.2-1.28,0-2.27-.34-2.96-1s-1.05-1.64-1.05-2.92v-5.6h-1.92v-2.18h1.92v-2.66h2.73v2.66h3.12v2.18h-3.12v5.54c0,.57,.14,1,.41,1.29,.28,.3,.68,.45,1.2,.45,.61,0,1.12-.16,1.53-.48l.76,1.94Z"/><path class="cls-2" d="M212.07,251.65h2.73v11.64h-2.73v-11.64Zm.13-2.39c-.34-.31-.5-.7-.5-1.17s.16-.85,.5-1.17c.33-.31,.75-.47,1.24-.47s.91,.15,1.24,.45c.34,.3,.5,.67,.5,1.12,0,.48-.16,.88-.49,1.21-.33,.33-.74,.49-1.25,.49s-.91-.16-1.24-.47"/><path class="cls-2" d="M225.59,262.66c-.32,.26-.71,.46-1.17,.59-.46,.13-.94,.2-1.45,.2-1.28,0-2.27-.34-2.96-1s-1.05-1.64-1.05-2.92v-5.6h-1.92v-2.18h1.92v-2.66h2.73v2.66h3.12v2.18h-3.12v5.54c0,.57,.14,1,.41,1.29,.28,.3,.68,.45,1.2,.45,.61,0,1.12-.16,1.53-.48l.76,1.94Z"/><path class="cls-2" d="M239.33,251.65v11.64h-2.59v-1.48c-.44,.52-.98,.93-1.64,1.21-.66,.28-1.36,.43-2.11,.43-1.55,0-2.78-.43-3.67-1.3-.89-.86-1.34-2.15-1.34-3.85v-6.65h2.73v6.28c0,1.05,.24,1.83,.71,2.35,.47,.52,1.14,.77,2.02,.77,.97,0,1.75-.3,2.32-.91,.57-.6,.86-1.47,.86-2.61v-5.89h2.73Z"/><path class="cls-2" d="M250.12,262.66c-.32,.26-.71,.46-1.17,.59-.46,.13-.94,.2-1.45,.2-1.28,0-2.27-.34-2.97-1s-1.05-1.64-1.05-2.92v-5.6h-1.92v-2.18h1.92v-2.66h2.73v2.66h3.12v2.18h-3.12v5.54c0,.57,.14,1,.41,1.29,.28,.3,.68,.45,1.2,.45,.61,0,1.12-.16,1.53-.48l.76,1.94Z"/><path class="cls-2" d="M259.9,260.11c.66-.67,.98-1.55,.98-2.64s-.33-1.97-.98-2.64c-.65-.67-1.48-1-2.49-1s-1.83,.34-2.47,1-.97,1.55-.97,2.64,.33,1.97,.97,2.64c.65,.67,1.47,1,2.47,1s1.83-.33,2.49-1m-5.67,2.57c-.95-.51-1.68-1.22-2.21-2.12-.53-.91-.79-1.94-.79-3.09s.27-2.17,.79-3.07c.53-.9,1.27-1.61,2.21-2.11,.94-.51,2.01-.76,3.18-.76s2.26,.26,3.21,.76c.94,.51,1.68,1.22,2.21,2.11,.53,.9,.79,1.93,.79,3.07s-.27,2.18-.79,3.09c-.53,.91-1.27,1.62-2.21,2.12-.95,.51-2.01,.76-3.21,.76s-2.24-.25-3.18-.76"/><path class="cls-2" d="M279.72,260.67c.52-.3,.94-.72,1.24-1.28,.31-.55,.46-1.19,.46-1.92s-.15-1.36-.46-1.92c-.3-.55-.72-.98-1.24-1.28-.52-.3-1.11-.45-1.77-.45s-1.24,.15-1.77,.45c-.52,.3-.94,.72-1.24,1.28-.31,.55-.46,1.19-.46,1.92s.15,1.37,.46,1.92c.3,.55,.72,.98,1.24,1.28s1.11,.45,1.77,.45,1.24-.15,1.77-.45m4.38-13.55v16.18h-2.62v-1.5c-.45,.55-1,.97-1.67,1.24-.66,.28-1.39,.41-2.19,.41-1.12,0-2.13-.25-3.02-.74-.9-.49-1.6-1.2-2.11-2.11-.51-.91-.76-1.95-.76-3.13s.26-2.22,.76-3.12c.51-.9,1.21-1.6,2.11-2.09,.89-.49,1.9-.74,3.02-.74,.77,0,1.48,.13,2.11,.39,.64,.26,1.18,.66,1.63,1.18v-5.97h2.73Z"/><path class="cls-2" d="M290.75,254.48c-.6,.52-.97,1.2-1.1,2.06h6.6c-.11-.84-.47-1.52-1.07-2.05-.6-.52-1.34-.79-2.22-.79s-1.61,.26-2.21,.78m8.05,3.87h-9.13c.16,.86,.58,1.54,1.25,2.04,.67,.5,1.51,.75,2.52,.75,1.28,0,2.33-.42,3.16-1.26l1.46,1.68c-.52,.63-1.18,1.1-1.99,1.42-.8,.32-1.7,.48-2.7,.48-1.28,0-2.41-.26-3.38-.77-.98-.51-1.73-1.22-2.26-2.12-.53-.91-.79-1.94-.79-3.08s.26-2.16,.77-3.06c.52-.91,1.23-1.62,2.15-2.12,.91-.51,1.95-.76,3.1-.76s2.15,.25,3.04,.75c.9,.5,1.59,1.21,2.09,2.11,.5,.91,.75,1.96,.75,3.15,0,.19-.02,.46-.04,.81"/><path class="cls-2" d="M311.06,262.5c-1.24-.68-2.22-1.61-2.92-2.8-.7-1.19-1.06-2.54-1.06-4.03s.36-2.84,1.07-4.03c.71-1.19,1.69-2.12,2.93-2.8,1.24-.67,2.63-1.01,4.18-1.01,1.25,0,2.39,.22,3.42,.66,1.03,.43,1.9,1.07,2.62,1.9l-1.83,1.72c-1.1-1.19-2.46-1.79-4.08-1.79-1.05,0-1.99,.23-2.81,.69-.83,.46-1.48,1.09-1.94,1.91-.47,.82-.7,1.74-.7,2.77s.23,1.96,.7,2.77,1.11,1.45,1.94,1.91c.83,.46,1.76,.69,2.81,.69,1.61,0,2.97-.6,4.08-1.81l1.83,1.74c-.71,.83-1.59,1.46-2.63,1.9-1.04,.43-2.18,.65-3.43,.65-1.54,0-2.93-.34-4.18-1.01"/><path class="cls-2" d="M323.98,251.65h2.73v11.64h-2.73v-11.64Zm.13-2.39c-.34-.31-.5-.7-.5-1.17s.16-.85,.5-1.17c.33-.31,.75-.47,1.24-.47s.91,.15,1.24,.45c.34,.3,.5,.67,.5,1.12,0,.48-.16,.88-.49,1.21-.33,.33-.74,.49-1.25,.49s-.91-.16-1.24-.47"/><path class="cls-2" d="M333.35,254.48c-.6,.52-.97,1.2-1.1,2.06h6.6c-.11-.84-.47-1.52-1.07-2.05-.6-.52-1.34-.79-2.22-.79s-1.61,.26-2.21,.78m4.07-4.42l-1.92-1.61-1.92,1.61h-2.25l2.92-2.99h2.49l2.92,2.99h-2.24Zm3.99,8.29h-9.13c.16,.86,.58,1.54,1.25,2.04,.67,.5,1.51,.75,2.52,.75,1.28,0,2.33-.42,3.16-1.26l1.46,1.68c-.52,.63-1.18,1.1-1.99,1.42-.8,.32-1.7,.48-2.7,.48-1.28,0-2.41-.26-3.38-.77-.98-.51-1.73-1.22-2.26-2.12-.53-.91-.79-1.94-.79-3.08s.26-2.16,.78-3.06c.51-.91,1.23-1.62,2.15-2.12,.91-.51,1.95-.76,3.1-.76s2.15,.25,3.04,.75c.9,.5,1.59,1.21,2.09,2.11,.5,.91,.75,1.96,.75,3.15,0,.19-.02,.46-.04,.81"/><path class="cls-2" d="M354.42,252.81c.89,.86,1.33,2.13,1.33,3.82v6.67h-2.73v-6.32c0-1.02-.24-1.78-.72-2.3-.48-.52-1.16-.78-2.05-.78-1,0-1.8,.3-2.38,.91-.58,.6-.87,1.47-.87,2.61v5.89h-2.73v-11.64h2.59v1.5c.45-.54,1.02-.94,1.7-1.22,.68-.28,1.45-.41,2.31-.41,1.47,0,2.65,.43,3.53,1.29"/><path class="cls-2" d="M361.63,262.68c-.96-.51-1.71-1.22-2.24-2.12-.54-.91-.81-1.94-.81-3.09s.27-2.17,.81-3.07c.54-.9,1.28-1.61,2.23-2.11,.95-.51,2.04-.76,3.26-.76,1.15,0,2.16,.23,3.02,.7,.86,.47,1.51,1.13,1.95,2l-2.09,1.22c-.34-.54-.75-.94-1.25-1.21-.5-.27-1.05-.41-1.65-.41-1.02,0-1.86,.33-2.53,.99s-1,1.54-1,2.65,.33,1.99,.99,2.65c.66,.66,1.51,.99,2.54,.99,.6,0,1.15-.13,1.65-.4,.5-.27,.92-.67,1.25-1.21l2.09,1.22c-.45,.87-1.11,1.54-1.97,2.02-.86,.47-1.86,.71-3,.71-1.21,0-2.29-.25-3.25-.76"/><path class="cls-2" d="M372.43,251.65h2.73v11.64h-2.73v-11.64Zm.13-2.39c-.34-.31-.5-.7-.5-1.17s.16-.85,.5-1.17c.33-.31,.75-.47,1.24-.47s.91,.15,1.24,.45c.34,.3,.5,.67,.5,1.12,0,.48-.16,.88-.49,1.21-.33,.33-.74,.49-1.25,.49s-.91-.16-1.24-.47"/><path class="cls-2" d="M384.84,260.99c.53-.31,.91-.76,1.12-1.34v-1.35h-2.81c-1.57,0-2.35,.52-2.35,1.55,0,.49,.2,.89,.59,1.18,.39,.29,.94,.43,1.64,.43s1.29-.16,1.82-.47m2.49-8.24c.91,.82,1.36,2.06,1.36,3.72v6.82h-2.57v-1.42c-.34,.51-.81,.9-1.43,1.17-.62,.27-1.36,.41-2.24,.41s-1.63-.15-2.29-.45-1.16-.71-1.52-1.24c-.35-.53-.54-1.13-.54-1.8,0-1.05,.39-1.89,1.17-2.52,.78-.63,2-.95,3.67-.95h3.01v-.17c0-.81-.24-1.44-.73-1.87-.49-.44-1.21-.66-2.17-.66-.66,0-1.3,.1-1.93,.31-.63,.2-1.17,.48-1.6,.85l-1.07-1.99c.61-.46,1.34-.82,2.2-1.07s1.77-.37,2.73-.37c1.72,0,3.03,.41,3.94,1.23"/><path class="cls-2" d="M393.22,263.08c-.9-.25-1.62-.56-2.16-.94l1.05-2.07c.52,.35,1.15,.63,1.89,.84,.73,.21,1.46,.32,2.17,.32,1.63,0,2.44-.43,2.44-1.29,0-.41-.21-.69-.62-.85-.41-.16-1.08-.31-1.99-.46-.96-.15-1.74-.31-2.35-.5-.6-.19-1.12-.52-1.57-.99-.44-.47-.66-1.13-.66-1.97,0-1.1,.46-1.99,1.38-2.65,.92-.66,2.17-.99,3.74-.99,.8,0,1.6,.09,2.4,.27,.8,.18,1.45,.43,1.96,.73l-1.04,2.07c-.99-.58-2.1-.87-3.34-.87-.8,0-1.41,.12-1.82,.36-.41,.24-.62,.55-.62,.95,0,.44,.22,.74,.66,.93,.44,.18,1.13,.35,2.06,.51,.93,.15,1.69,.31,2.29,.5,.6,.19,1.11,.51,1.54,.96,.43,.45,.64,1.09,.64,1.92,0,1.09-.47,1.96-1.42,2.62-.95,.66-2.23,.98-3.86,.98-.95,0-1.87-.12-2.77-.37"/><polygon class="cls-2" points="180.55 281.76 180.55 284.14 169.1 284.14 169.1 268.87 180.24 268.87 180.24 271.25 171.93 271.25 171.93 275.22 179.31 275.22 179.31 277.55 171.93 277.55 171.93 281.76 180.55 281.76"/><polygon class="cls-2" points="190.97 284.14 187.98 280.1 184.97 284.14 181.96 284.14 186.5 278.23 182.16 272.5 185.19 272.5 188.05 276.31 190.9 272.5 193.85 272.5 189.49 278.18 194.04 284.14 190.97 284.14"/><path class="cls-2" d="M202.06,281.84c.53-.31,.91-.76,1.12-1.34v-1.35h-2.81c-1.57,0-2.35,.52-2.35,1.55,0,.49,.2,.89,.59,1.18,.39,.29,.94,.43,1.64,.43s1.29-.16,1.82-.47m2.49-8.24c.91,.82,1.36,2.06,1.36,3.72v6.82h-2.57v-1.42c-.34,.51-.81,.9-1.43,1.17-.62,.27-1.36,.41-2.24,.41s-1.63-.15-2.29-.45c-.66-.3-1.16-.71-1.52-1.24-.35-.53-.54-1.13-.54-1.8,0-1.05,.39-1.89,1.17-2.52,.78-.63,2-.95,3.67-.95h3.01v-.17c0-.81-.24-1.44-.73-1.87-.49-.44-1.21-.66-2.17-.66-.66,0-1.3,.1-1.93,.3-.63,.21-1.17,.49-1.6,.85l-1.07-1.99c.61-.47,1.34-.82,2.2-1.07,.86-.25,1.77-.37,2.73-.37,1.72,0,3.03,.41,3.94,1.23"/><path class="cls-2" d="M216.72,283.51c-.32,.26-.71,.46-1.17,.59-.46,.13-.94,.2-1.45,.2-1.28,0-2.27-.34-2.96-1s-1.05-1.64-1.05-2.92v-5.6h-1.92v-2.18h1.92v-2.66h2.73v2.66h3.12v2.18h-3.12v5.54c0,.57,.14,1,.41,1.29,.28,.3,.68,.45,1.2,.45,.61,0,1.12-.16,1.53-.48l.76,1.94Z"/><path class="cls-2" d="M225.19,281.84c.53-.31,.91-.76,1.12-1.34v-1.35h-2.81c-1.57,0-2.35,.52-2.35,1.55,0,.49,.2,.89,.59,1.18,.39,.29,.94,.43,1.64,.43s1.29-.16,1.82-.47m2.49-8.24c.91,.82,1.36,2.06,1.36,3.72v6.82h-2.57v-1.42c-.34,.51-.81,.9-1.43,1.17s-1.36,.41-2.24,.41-1.63-.15-2.29-.45c-.66-.3-1.16-.71-1.52-1.24-.35-.53-.54-1.13-.54-1.8,0-1.05,.39-1.89,1.17-2.52,.78-.63,2-.95,3.67-.95h3.01v-.17c0-.81-.24-1.44-.73-1.87-.49-.44-1.21-.66-2.17-.66-.66,0-1.3,.1-1.93,.3-.63,.21-1.17,.49-1.6,.85l-1.07-1.99c.61-.47,1.34-.82,2.2-1.07s1.77-.37,2.73-.37c1.72,0,3.03,.41,3.94,1.23"/><path class="cls-2" d="M233.68,283.92c-.9-.25-1.62-.56-2.16-.94l1.05-2.07c.52,.35,1.15,.63,1.89,.84,.73,.21,1.46,.32,2.17,.32,1.63,0,2.44-.43,2.44-1.29,0-.41-.21-.69-.62-.85-.41-.16-1.08-.31-1.99-.46-.96-.15-1.74-.31-2.35-.5-.6-.19-1.12-.52-1.57-.99-.44-.47-.67-1.13-.67-1.97,0-1.1,.46-1.99,1.39-2.65,.92-.66,2.17-.99,3.74-.99,.8,0,1.6,.09,2.4,.27,.8,.18,1.45,.43,1.96,.73l-1.04,2.07c-.99-.58-2.1-.87-3.34-.87-.8,0-1.41,.12-1.82,.36-.41,.24-.62,.56-.62,.95,0,.44,.22,.74,.66,.93,.44,.18,1.13,.35,2.06,.51,.93,.15,1.69,.31,2.29,.5,.6,.19,1.11,.51,1.54,.96,.43,.45,.64,1.09,.64,1.92,0,1.09-.47,1.96-1.42,2.62-.95,.66-2.23,.98-3.86,.98-.95,0-1.87-.12-2.77-.37"/><path class="cls-2" d="M253.6,275.32c-.6,.52-.97,1.2-1.1,2.06h6.6c-.11-.84-.47-1.52-1.07-2.05-.6-.52-1.34-.79-2.22-.79s-1.61,.26-2.21,.78m8.05,3.87h-9.13c.16,.86,.58,1.54,1.25,2.04,.67,.5,1.51,.75,2.52,.75,1.28,0,2.33-.42,3.16-1.27l1.46,1.68c-.52,.62-1.18,1.1-1.99,1.42-.8,.32-1.7,.48-2.7,.48-1.28,0-2.4-.26-3.38-.77-.98-.51-1.73-1.22-2.26-2.12-.53-.91-.79-1.94-.79-3.08s.26-2.16,.78-3.06c.51-.91,1.23-1.61,2.15-2.12s1.95-.76,3.1-.76,2.15,.25,3.04,.75c.9,.5,1.59,1.21,2.09,2.11,.5,.91,.75,1.96,.75,3.15,0,.19-.02,.46-.04,.81"/><rect class="cls-2" x="271.24" y="268.88" width="2.84" height="15.26"/><path class="cls-2" d="M288.4,273.65c.89,.86,1.33,2.13,1.33,3.82v6.67h-2.73v-6.32c0-1.02-.24-1.78-.72-2.3-.48-.52-1.16-.78-2.05-.78-1,0-1.8,.3-2.38,.91-.58,.6-.87,1.47-.87,2.61v5.89h-2.73v-11.64h2.59v1.5c.45-.54,1.02-.94,1.7-1.22,.68-.28,1.45-.41,2.31-.41,1.47,0,2.65,.43,3.53,1.29"/><path class="cls-2" d="M296.53,271.88v.7h3.2v2.18h-3.12v9.37h-2.73v-9.37h-1.92v-2.18h1.92v-.74c0-1.25,.36-2.23,1.09-2.95,.73-.72,1.75-1.08,3.07-1.08,1.05,0,1.87,.21,2.46,.63l-.76,2.05c-.47-.32-.97-.48-1.5-.48-1.15,0-1.72,.62-1.72,1.87"/><path class="cls-2" d="M309.44,280.95c.66-.67,.98-1.54,.98-2.64s-.33-1.97-.98-2.64c-.65-.67-1.48-1-2.49-1s-1.83,.34-2.47,1-.97,1.55-.97,2.64,.33,1.97,.97,2.64c.65,.67,1.47,1,2.47,1s1.83-.33,2.49-1m-5.67,2.57c-.95-.51-1.68-1.22-2.21-2.12-.53-.91-.79-1.94-.79-3.09s.26-2.17,.79-3.07c.53-.9,1.27-1.61,2.21-2.11,.94-.51,2.01-.76,3.18-.76s2.26,.26,3.21,.76c.94,.51,1.68,1.22,2.21,2.11,.53,.9,.79,1.93,.79,3.07s-.27,2.18-.79,3.09c-.53,.91-1.27,1.61-2.21,2.12-.95,.51-2.01,.76-3.21,.76s-2.24-.25-3.18-.76"/><path class="cls-2" d="M322.85,272.36v2.6c-.23-.04-.44-.07-.63-.07-1.06,0-1.89,.31-2.49,.93-.6,.62-.89,1.51-.89,2.67v5.65h-2.73v-11.64h2.6v1.7c.78-1.22,2.16-1.83,4.14-1.83"/><path class="cls-2" d="M343.67,273.64c.86,.85,1.29,2.13,1.29,3.83v6.67h-2.73v-6.32c0-1.02-.22-1.79-.67-2.3-.45-.52-1.1-.77-1.94-.77-.91,0-1.65,.3-2.2,.91-.55,.6-.83,1.46-.83,2.58v5.91h-2.73v-6.32c0-1.02-.22-1.79-.67-2.3-.45-.52-1.1-.77-1.94-.77-.93,0-1.67,.3-2.21,.89-.54,.6-.82,1.46-.82,2.6v5.91h-2.72v-11.64h2.59v1.48c.44-.52,.98-.92,1.64-1.2,.65-.28,1.38-.41,2.18-.41,.87,0,1.65,.16,2.32,.49,.67,.33,1.21,.81,1.6,1.45,.48-.61,1.1-1.09,1.85-1.43,.76-.34,1.59-.51,2.51-.51,1.47,0,2.63,.42,3.49,1.28"/><path class="cls-2" d="M354.57,267.92h3.2l-3.79,2.99h-2.36l2.94-2.99Zm.1,13.92c.53-.31,.91-.76,1.12-1.34v-1.35h-2.81c-1.57,0-2.35,.52-2.35,1.55,0,.49,.2,.89,.59,1.18,.39,.29,.94,.43,1.64,.43s1.29-.16,1.82-.47m2.49-8.24c.91,.82,1.36,2.06,1.36,3.72v6.82h-2.57v-1.42c-.34,.51-.81,.9-1.43,1.17s-1.36,.41-2.24,.41-1.63-.15-2.29-.45c-.66-.3-1.16-.71-1.52-1.24-.35-.53-.54-1.13-.54-1.8,0-1.05,.39-1.89,1.17-2.52,.78-.63,2-.95,3.67-.95h3.01v-.17c0-.81-.24-1.44-.73-1.87-.49-.44-1.21-.66-2.17-.66-.66,0-1.3,.1-1.93,.3-.63,.21-1.17,.49-1.6,.85l-1.07-1.99c.61-.47,1.34-.82,2.2-1.07s1.77-.37,2.73-.37c1.72,0,3.03,.41,3.94,1.23"/><path class="cls-2" d="M369.33,283.51c-.32,.26-.71,.46-1.17,.59-.46,.13-.94,.2-1.45,.2-1.28,0-2.27-.34-2.96-1s-1.05-1.64-1.05-2.92v-5.6h-1.92v-2.18h1.92v-2.66h2.73v2.66h3.12v2.18h-3.12v5.54c0,.57,.14,1,.41,1.29,.28,.3,.68,.45,1.2,.45,.61,0,1.12-.16,1.53-.48l.76,1.94Z"/><path class="cls-2" d="M371.9,272.49h2.73v11.64h-2.73v-11.64Zm.13-2.39c-.34-.31-.5-.7-.5-1.17s.16-.85,.5-1.17c.33-.31,.75-.47,1.24-.47s.91,.15,1.24,.45c.34,.3,.5,.67,.5,1.12,0,.48-.16,.88-.49,1.21-.33,.33-.74,.49-1.25,.49s-.91-.16-1.24-.47"/><path class="cls-2" d="M380.62,283.53c-.96-.51-1.71-1.22-2.24-2.12-.54-.91-.81-1.94-.81-3.09s.27-2.17,.81-3.07c.54-.9,1.28-1.61,2.23-2.11,.95-.51,2.04-.76,3.26-.76,1.15,0,2.16,.23,3.02,.7,.86,.47,1.51,1.13,1.95,2l-2.09,1.22c-.34-.54-.75-.94-1.25-1.21-.5-.27-1.05-.41-1.65-.41-1.02,0-1.86,.33-2.53,.99-.67,.66-1,1.54-1,2.65s.33,1.99,.99,2.65c.66,.66,1.51,.99,2.54,.99,.6,0,1.15-.13,1.65-.4,.5-.27,.92-.67,1.25-1.21l2.09,1.22c-.45,.87-1.11,1.54-1.97,2.02-.86,.47-1.86,.71-3,.71-1.21,0-2.29-.25-3.25-.76"/><path class="cls-2" d="M397.42,281.84c.53-.31,.91-.76,1.12-1.34v-1.35h-2.81c-1.57,0-2.35,.52-2.35,1.55,0,.49,.2,.89,.59,1.18,.39,.29,.94,.43,1.64,.43s1.29-.16,1.82-.47m2.49-8.24c.91,.82,1.36,2.06,1.36,3.72v6.82h-2.57v-1.42c-.34,.51-.81,.9-1.43,1.17s-1.36,.41-2.24,.41-1.63-.15-2.29-.45c-.66-.3-1.16-.71-1.52-1.24-.35-.53-.54-1.13-.54-1.8,0-1.05,.39-1.89,1.17-2.52,.78-.63,2-.95,3.67-.95h3.01v-.17c0-.81-.24-1.44-.73-1.87-.49-.44-1.21-.66-2.17-.66-.66,0-1.3,.1-1.93,.3-.63,.21-1.17,.49-1.6,.85l-1.07-1.99c.61-.47,1.34-.82,2.2-1.07s1.77-.37,2.73-.37c1.72,0,3.03,.41,3.94,1.23"/><g><path class="cls-2" d="M35.91,234.4c0-2.61-.04-4.21-.12-4.91,1.01-.12,3.39-.31,4.21-.31,.66,0,.78,.35,.78,2.07v16.49c0,5.15-.66,7.33-2.42,9.12-1.17,1.17-3.08,1.91-4.48,1.91-1.09,0-1.99-1.01-2.18-2.22l.04-.12c3.08-.59,4.17-1.79,4.17-8.62v-13.41Z"/><path class="cls-2" d="M53.93,236.07c5.62,0,8.58,3.98,8.58,8.81,0,5.46-3.55,9.28-9.01,9.28-5.03,0-8.62-3.35-8.62-8.89s3.78-9.2,9.01-9.2h.04Zm-.43,2.89c-2.38,0-3.67,2.46-3.67,5.81,0,4.45,1.87,6.51,4.09,6.51,2.42,0,3.63-2.38,3.63-5.97,0-3.31-1.17-6.36-4.02-6.36h-.04Z"/><path class="cls-2" d="M72.6,236.07c.9,0,2.22,.16,3.2,.43,.94,.2,2.18,.51,2.92,.51,1.17,0,2.46-.23,3-.43,.12,.23,.19,.62,.19,.97,0,1.4-.66,2.11-1.99,2.26-.27,.04-.7,.04-1.13,.08,.31,.74,.47,1.56,.47,2.22,0,3.98-3.12,5.93-6.82,5.93-.62,0-1.05-.04-1.4-.16-.27,.27-.62,.62-.62,.94,0,.55,.39,.97,1.75,1.09,1.56,.12,3.12,.19,4.64,.31,3.59,.23,4.95,2.26,4.95,4.56,0,4.6-4.6,7.25-9.48,7.25s-7.72-2.22-7.72-5.15c0-1.68,1.83-2.85,3.59-3.67-1.17-.47-2.34-1.64-2.38-3.31,0-.16,.08-.35,.35-.51,.74-.47,1.95-1.25,2.69-2.03-1.79-.66-3.47-2.22-3.47-5.07,0-3.74,3.12-6.24,7.21-6.24h.04Zm-3.86,20.2c0,1.72,2.14,2.73,4.68,2.73,2.38,0,4.33-.94,4.33-2.65,0-1.01-.58-1.91-2.73-2.18-1.21-.2-2.65-.27-3.67-.23-.47,0-1.05,.12-1.36,.31-.7,.39-1.25,1.05-1.25,1.99v.04Zm3.67-17.66c-1.64,0-2.61,1.6-2.61,3.43,0,2.18,1.13,3.51,2.81,3.51s2.61-1.48,2.61-3.39c0-1.72-.66-3.55-2.77-3.55h-.04Z"/><path class="cls-2" d="M91.9,236.07c5.62,0,8.58,3.98,8.58,8.81,0,5.46-3.55,9.28-9.01,9.28-5.03,0-8.62-3.35-8.62-8.89s3.78-9.2,9.01-9.2h.04Zm-.43,2.89c-2.38,0-3.67,2.46-3.67,5.81,0,4.45,1.87,6.51,4.09,6.51,2.42,0,3.63-2.38,3.63-5.97,0-3.31-1.17-6.36-4.02-6.36h-.04Z"/><path class="cls-2" d="M109.53,236.07c1.56,0,3.08,.39,4.37,1.36,.04,1.01-.43,2.53-1.79,2.42-.78-.35-1.75-.62-2.69-.62-1.17,0-1.99,.62-1.99,1.56,0,.82,.62,1.29,1.44,1.75,.74,.43,2.3,1.13,3.2,1.6,1.95,1.09,2.73,2.57,2.73,4.29,0,3.86-3.43,5.73-6.98,5.73-1.52,0-3.16-.43-4.21-1.09-.51-.35-.86-.82-.86-1.4,.04-.82,.47-1.68,1.01-2.11,1.13,.7,2.81,1.4,4.37,1.4,1.4,0,2.22-.66,2.22-1.64,0-.7-.39-1.21-1.52-1.79-.97-.55-1.99-1.01-2.96-1.56-1.6-.9-2.73-2.38-2.73-4.45,0-3.47,3-5.46,6.36-5.46h.04Z"/><path class="cls-2" d="M.08,266.67c0-2.69-.04-3.43-.08-4.45,.86-.2,4.8-.74,7.99-.74,11.74,0,13.84,7.06,13.84,12.05,0,8.42-6.04,12.95-14.04,12.95-2.89,0-5.23-.23-7.72-.74v-19.07Zm4.87,16.46c.94,.23,1.99,.31,3.04,.31,3.51,0,8.62-1.68,8.62-9.83,0-5.89-3.35-9.09-9.16-9.09-1.21,0-1.91,.08-2.5,.2v18.41Z"/><path class="cls-2" d="M28.23,260.28c1.48,0,2.38,1.09,2.38,2.53s-1.05,2.65-2.53,2.65c-1.21,0-2.46-.74-2.46-2.53,0-1.91,1.6-2.65,2.57-2.65h.04Zm2.26,24.88c0,.7-.27,.9-1.13,1.01-.78,.12-2.18,.16-3.7,.16,.04-1.6,.12-3.86,.12-6.12v-6.67c0-2.38-.08-3.59-.16-4.37,.9-.27,3.35-.47,4.17-.47,.55,0,.7,.2,.7,2.46v14Z"/><path class="cls-2" d="M41.6,268.47c.9,0,2.22,.16,3.2,.43,.94,.2,2.18,.51,2.92,.51,1.17,0,2.46-.23,3-.43,.12,.23,.19,.62,.19,.97,0,1.4-.66,2.11-1.99,2.26-.27,.04-.7,.04-1.13,.08,.31,.74,.47,1.56,.47,2.22,0,3.98-3.12,5.93-6.82,5.93-.62,0-1.05-.04-1.4-.16-.27,.27-.62,.62-.62,.94,0,.55,.39,.97,1.75,1.09,1.56,.12,3.12,.19,4.64,.31,3.59,.23,4.95,2.26,4.95,4.56,0,4.6-4.6,7.25-9.48,7.25s-7.72-2.22-7.72-5.15c0-1.68,1.83-2.85,3.59-3.67-1.17-.47-2.34-1.64-2.38-3.31,0-.16,.08-.35,.35-.51,.74-.47,1.95-1.25,2.69-2.03-1.79-.66-3.47-2.22-3.47-5.07,0-3.74,3.12-6.24,7.21-6.24h.04Zm-3.86,20.2c0,1.72,2.14,2.73,4.68,2.73,2.38,0,4.33-.94,4.33-2.65,0-1.01-.58-1.91-2.73-2.18-1.21-.2-2.65-.27-3.67-.23-.47,0-1.05,.12-1.36,.31-.7,.39-1.25,1.05-1.25,1.99v.04Zm3.67-17.66c-1.64,0-2.61,1.6-2.61,3.43,0,2.18,1.13,3.51,2.81,3.51s2.61-1.48,2.61-3.39c0-1.72-.66-3.55-2.77-3.55h-.04Z"/><path class="cls-2" d="M55.68,260.28c1.48,0,2.38,1.09,2.38,2.53s-1.05,2.65-2.53,2.65c-1.21,0-2.46-.74-2.46-2.53,0-1.91,1.6-2.65,2.57-2.65h.04Zm2.26,24.88c0,.7-.27,.9-1.13,1.01-.78,.12-2.18,.16-3.7,.16,.04-1.6,.12-3.86,.12-6.12v-6.67c0-2.38-.08-3.59-.16-4.37,.9-.27,3.35-.47,4.17-.47,.55,0,.7,.2,.7,2.46v14Z"/><path class="cls-2" d="M73.38,282.58c.2,.94,.04,2.14-.66,2.73-.94,.82-2.57,1.25-4.29,1.25-3.98,0-5.26-2.53-5.26-5.23v-9.32c-1.44,0-2.18-.7-2.18-1.09,.55-1.13,3.7-3.94,4.37-4.48,.66-.55,1.4-1.01,2.92-1.17-.16,1.17-.23,2.57-.23,3.67h5.77c-.47,2.69-1.33,2.81-2.11,2.89-.9,.08-2.14,.16-3.78,.16-.16,3.2-.12,6.98,.04,8.62,.19,1.91,1.25,2.61,2.57,2.61,1.17,0,2.26-.39,2.73-.7l.12,.08Z"/><path class="cls-2" d="M91.44,283.29c.04,2.07-1.05,3.28-3.28,3.28-1.6,0-2.65-.82-3.16-2.18-1.01,1.09-2.73,2.18-4.6,2.18-2.57,0-4.87-1.95-4.87-4.84,0-4.02,4.68-5.11,7.45-5.73,.7-.16,1.56-.27,2.03-.39v-.66c0-1.64-1.13-2.96-3.08-2.96-1.4,0-2.77,.62-3.63,1.13-1.64,.47-2.18-.94-2.18-2.11,1.68-1.21,4.45-2.53,7.06-2.53,3.51,0,6.36,2.34,6.36,6.59,0,1.6-.16,4.56-.16,7.1,0,.51,.47,1.05,1.4,1.05,.2,0,.47-.04,.66-.08v.16Zm-11.39-2.22c0,1.36,1.05,2.14,2.3,2.14,1.09,0,1.72-.43,2.26-1.01,.2-.23,.31-.62,.31-1.33v-2.77c-3.39,.39-4.87,1.64-4.87,2.92v.04Z"/><path class="cls-2" d="M97.13,260.28c1.48,0,2.38,1.09,2.38,2.53s-1.05,2.65-2.53,2.65c-1.21,0-2.46-.74-2.46-2.53,0-1.91,1.6-2.65,2.57-2.65h.04Zm2.26,24.88c0,.7-.27,.9-1.13,1.01-.78,.12-2.18,.16-3.7,.16,.04-1.6,.12-3.86,.12-6.12v-6.67c0-2.38-.08-3.59-.16-4.37,.9-.27,3.35-.47,4.17-.47,.55,0,.7,.2,.7,2.46v14Z"/><path class="cls-2" d="M109.53,268.47c1.56,0,3.08,.39,4.37,1.36,.04,1.01-.43,2.53-1.79,2.42-.78-.35-1.75-.62-2.69-.62-1.17,0-1.99,.62-1.99,1.56,0,.82,.62,1.29,1.44,1.75,.74,.43,2.3,1.13,3.2,1.6,1.95,1.09,2.73,2.57,2.73,4.29,0,3.86-3.43,5.73-6.98,5.73-1.52,0-3.16-.43-4.21-1.09-.51-.35-.86-.82-.86-1.4,.04-.82,.47-1.68,1.01-2.11,1.13,.7,2.81,1.4,4.37,1.4,1.4,0,2.22-.66,2.22-1.64,0-.7-.39-1.21-1.52-1.79-.97-.55-1.99-1.01-2.96-1.56-1.6-.9-2.73-2.38-2.73-4.45,0-3.47,3-5.46,6.36-5.46h.04Z"/></g><rect class="cls-2" x="140.78" y="195.7" width="1.77" height="91.11"/><g><path class="cls-2" d="M591.32,260.1c2.07,0,3.63-1.61,3.63-3.75s-1.39-3.56-3.39-3.56h-.05c-1.54,0-3.72,1.16-3.72,3.75s1.9,3.56,3.53,3.56"/><path class="cls-2" d="M500.4,256.09c-.79,.1-1.24,.36-1.24,1.4v13.26c0,8.63-3.14,9.8-6.2,9.8-2.7,0-6.3-.98-6.3-9.47v-12.18c0-2.22-.1-3-1.26-3-1.08,0-4.87,.23-5.84,.38l-.16,.02,.02,.17c.1,1,.14,2.98,.14,6.05v8.84c0,10.07,4.26,15.18,12.65,15.18,5.97,0,13.08-2.78,13.08-16.03v-6.73c0-4.08,.05-5.91,.14-7.7v-.18s-.18,0-.18,0c-.92,0-3.41,.05-4.84,.19"/><path class="cls-2" d="M526.85,260.25c2.75,0,4.87,.73,5.89,1.16h.05c.74,.11,1.42-.12,1.96-.64,.71-.68,1.11-1.81,1.03-2.88v-.06s-.05-.04-.05-.04c-.73-.81-4.18-2.41-8.88-2.41-10.42,0-17.15,5.9-17.15,15.04,0,9.79,6.68,16.12,17,16.12,2.98,0,5.39-1.54,6.68-2.37l.17-.11,.03-.02c.94-.89,1.56-2.4,1.76-4.25v-.12s-.35-.18-.35-.18l-.37,.1c-1.21,.35-3.48,.99-6.45,.99-6.64,0-10.94-4.16-10.94-10.6,0-8.05,5.23-9.74,9.61-9.74"/><path class="cls-2" d="M582.28,273.96l-2.27-16.36h0c-.19-1.26-.49-1.7-1.17-1.7-1.2,0-5.09,.27-5.91,.78l-.08,.05v.67c-1.96,4.73-4.76,11.74-6.73,17.03l-6.03-16.11c-.68-1.96-1-2.48-1.91-2.42-2.42,0-4.21,.39-5.52,.67l-.53,.12,.11,.89c-1.33,8.01-2.59,16.1-3.51,22.01-.31,2.02-.58,3.74-.79,5.06l-.02,.12,.11,.06c.79,.44,3.43,1.3,4.96,1.3,.66,0,.93-1.03,1.07-1.81,.65-5.31,1.68-14.94,2.19-20.53,.82,2.62,1.94,6.17,3.03,9.61,1.57,4.95,3.05,9.63,3.6,11.47l.04,.12h.13c.93,0,2.04-.12,3.39-.38,1.23-.25,1.72-.66,2.07-1.76,2.35-7.04,4.89-14.73,6.22-19.13l.91,9.78c.44,4.98,.72,7.71,.95,9.91l.05,.44c.1,1.08,.8,2.28,1.59,2.28,.94,0,3.85-.82,5.09-1.17l.55-.15-.03-.16c-.42-2.52-.96-6.21-1.56-10.67"/><path class="cls-2" d="M594.17,263.56c-1.16,0-4.57,.29-5.81,.62l-.14,.04,.02,.15c.08,.76,.19,2.14,.19,5.25v8.04c0,2.52-.08,5.78-.13,7.72l-.02,.73h.18c2.48,0,4.2-.06,5.12-.19,1.3-.15,1.76-1.26,1.76-2.25v-16.98c0-2.67-.18-3.14-1.17-3.14"/><path class="cls-2" d="M620.96,277.7v-5.55c0-5.81-2.53-8.88-7.31-8.88-2.31,0-4.48,1.41-6.32,2.83-.49-1.88-1.57-2.83-3.23-2.83-1.85,0-3.66,1.52-4.14,2.89v.53s.07,.05,.07,.05c.64,.4,.82,.87,.82,2.2v7.67c0,2.48-.04,6.33-.14,9.31v.18s.18,0,.18,0c1.25,0,2.36-.33,3.43-.65,.72-.22,1.41-.42,2.13-.53,1.16-.15,1.33-.44,1.33-1.35v-13.97c.95-.67,1.76-1.14,3.27-1.14,1.76,0,2.99,1.47,2.99,3.59v12.04c0,.84,.39,2.02,1.26,2.02,1.52,0,2.95-.46,4.09-.82,.63-.2,1.17-.38,1.55-.41l.17-.02v-.17c-.09-1.67-.15-4.42-.15-7"/><path class="cls-2" d="M635.78,278.46c0,.76-.11,1.22-.36,1.51-.6,.51-1.05,.66-1.92,.66-1.23,0-2.47-.7-2.47-2.27v-.05c0-.55,.35-2.37,4.75-2.86v3Zm8.78,2.04c-.17,.04-.5,.04-.71,.04-1.04,0-1.53-.54-1.53-.91,0-1.77,.06-3.51,.11-5.05,.04-1.22,.08-2.28,.08-3.13,0-5.64-4.1-8.17-8.16-8.17-3.26,0-6.78,1.6-8.99,3.09l-.07,.05v.09c-.02,.59,.04,2.05,.98,2.79,.54,.43,1.25,.53,2.15,.29l.12-.05c.92-.41,2.46-1.11,3.97-1.11,2.05,0,3.37,1.19,3.37,3.02v.42c-.55,.1-1.49,.27-2.27,.4-3.19,.68-9.12,1.95-9.12,6.99,0,3.74,2.99,7.14,6.27,7.14,1.96,0,3.77-1.6,5.3-3.22,.68,1.3,2.03,3.22,4.16,3.22,3.41,0,4.62-2.99,4.62-5.54l-.1-.4-.17,.04Z"/><path class="cls-2" d="M658.88,272.75h0c-.32-.16-.76-.37-1.23-.59-.92-.44-1.97-.93-2.5-1.24-.94-.56-1.52-.94-1.52-1.68s.76-1.28,1.91-1.28c1,0,2.1,.25,3.09,.69h.06c.64,.06,1.18-.13,1.62-.56,.79-.78,1-2.1,.94-3v-.08s-.07-.05-.07-.05c-1.59-1.14-3.35-1.68-5.54-1.68h-.05c-3.95,0-8.21,2.2-8.21,7.04,0,2.28,1.22,4.31,3.36,5.56,.63,.33,1.26,.64,1.87,.95,.62,.31,1.23,.62,1.82,.93,1.26,.68,1.51,1.16,1.51,1.73,0,.86-.8,1.38-2.14,1.38-2.34,0-4.64-1.31-5.3-1.71l-.11-.07-.1,.09c-.69,.64-1.38,1.94-1.38,3.19,0,.96,.69,1.52,1.36,1.94l.4,.23c1.33,.79,3.15,1.87,4.7,1.87,4.43,0,9.02-3.04,9.02-8.13,0-2.41-1.14-4.21-3.5-5.52"/><path class="cls-2" d="M463.57,270.63c-.17,0-.94-.03-1.68-.06v-10.01c.48-.07,1.05-.07,1.4-.07,2.53,0,5.12,.54,5.12,4.52,0,4.88-3.03,5.61-4.83,5.61m-.67-14.66c-3.55,0-6.93,.38-8.23,.62l-.16,.03,.02,.16c.19,2.18,.19,4.13,.19,6.39v21.5c0,.91,.46,1.88,1.32,1.88,1.3,0,4.96-.14,5.87-.39l.13-.04v-.14c-.1-1.89-.15-4.06-.15-6.44v-3.37c1.35,.11,2.9-.2,3.93-.4,4.23-.85,7.18-2.8,8.78-5.79,.79-1.49,1.22-3.17,1.22-4.87,0-8.04-6.2-9.15-12.91-9.15"/><path class="cls-2" d="M624.22,237.8c-.19-1.09,.25-2.04,1.27-2.48,.61-.26,2.17-.72,2.8-.83,2.24-.42,13.41-2.63,15.95-4.96,1.5-1.36,2.17-3.76,.44-5.28-.13-.12-.28-.23-.35-.4-.05-.12-.05-.25-.04-.38,.08-2.87,.18-5.75,.2-8.62,4.58-3.06,11.59-4.57,13.15-4.73,.32-.03,.64,.11,.83,.37s.22,.61,.09,.9l-5.63,11.13,7.42,7.67c.24,.26,.3,.65,.15,.97-.14,.33-.47,.54-.82,.54-6.49,0-10.38,2.52-15.16,5.31-4.1,2.4-7.97,4.66-12.33,4.66-2.53,0-4.66-.54-6.16-1.55-.83-.56-1.62-1.29-1.81-2.32m-14.15-7.82c-7.33,2.98-16.01,6.35-24.81,8.73-9.15,2.48-17.58,3.69-25.78,3.69-18.49,0-35.13-6.14-50.59-12.42-4.62-1.88-9.61-3.82-14.85-5.33-1.47-.42-2.9-.79-4.3-1.1-2.57-.57-5.03-.96-7.43-1.16-1.31-.16-2.52-.22-3.6-.15-1.11,.07-2.07,.26-2.85,.63-.55-12.9,.19-18.67,.2-18.72,.01-.09,.02-.18,.02-.27,0-.43,1.53-.97,2.68-1.07,6.08-.49,12.46,.29,19.48,2.38,6.37,1.9,12.7,4.68,18.83,7.37l.04,.02c2.87,1.26,5.85,2.57,8.8,3.77,11.04,4.49,22.02,6.68,33.59,6.68s22.54-2.19,33.58-6.68c2.95-1.2,5.92-2.5,8.79-3.76l.04-.02c6.12-2.69,12.45-5.47,18.83-7.36,7.04-2.1,13.41-2.88,19.49-2.39,1.12,.1,2.68,.65,2.68,1.07,0,.08,0,.17,.02,.26,0,.04,.44,3.39,.4,10.72-.01,2.3-.07,5-.2,8.12-.17-.06-.32-.12-.47-.18-.53-.21-1.02-.39-1.56-.48-.94-.23-2.16-.23-3.37-.23-2.89,.18-6.33,.9-10.28,1.89-.82,.21-1.65,.43-2.5,.67-5.23,1.51-10.23,3.45-14.86,5.33m-116.35,5.9c-.52-.55-1.19-.99-1.97-1.25-.28-.12-.58-.21-.92-.28-3.83-.73-8.01-1.78-11.11-2.98-1.94-.75-3.45-1.57-4.18-2.4-.79-.9-.86-1.84-.86-1.84-.01-.18,0-.34,.02-.49,.05-.42,.19-.73,.25-.86,.61-1.31,2.14-1.87,2.89-2.11,.73-.14,1.52-.22,2.32-.22,.22,0,.44,0,.64,.02,4.07,.23,8.29,.98,12.92,2.32,.23,.07,.46,.14,.69,.2-.03,1.59-.15,3.83-.68,9.9m-3,6.13c-1.77,.88-3.86,1.01-5.8,.91-9.32-.48-15.42-10.66-28.37-10.66l7.59-8.72-5.28-12.39s6.31,1.38,8.42,2.09c2.67,.9,6.15,2.16,7.23,3.08,.01,.91,.03,1.88,.06,2.9,0,.36,.01,.73,.02,1.11,.01,1.06,.02,2.22,.07,3.33-.43,.36-.91,.89-1.17,1.64-.58,1.64-.1,3.42,.93,4.76,1.37,1.78,3.84,2.57,5.88,3.27,2.54,.89,5.16,1.56,7.82,2,1.93,.32,4.69,.87,4.95,3.25,.17,1.56-1.06,2.78-2.35,3.42m153.33-15.97s1.72,2.87-6.84,5.25c-1.14,.28-2.45,.59-3.97,.94-.05,.01-.1,.02-.15,.03-.35,.07-.7,.14-1.07,.21-2.15,.4-7.84,1.88-7.84,1.88,.03-3.51,.27-5.24,.36-8.35,.24-.07,.47-.15,.71-.21,1.61-.47,3.17-.86,4.7-1.18,6.52-1.36,10.95-1.71,13.13,.21,.39,.34,.71,.74,.96,1.23m-12.01,17.4c4.59,0,8.56-2.32,12.77-4.78,4.68-2.73,9.51-5.56,15.77-5.56,.69,0,1.32-.41,1.6-1.04,.28-.63,.16-1.37-.3-1.88l-7.12-7.87,5.04-10.97c.26-.57,.2-1.24-.17-1.75-.37-.51-.99-.78-1.66-.71-1.59,.17-8.77,1.21-13.49,4.5-.02-6.37-.4-9.35-.41-9.39,0-.03,0-.07,0-.1,0-1.87-3.72-2.23-3.75-2.24-6.22-.5-12.74,.29-19.92,2.43-6.44,1.92-12.81,4.71-18.96,7.42-2.87,1.26-5.84,2.56-8.81,3.77-10.9,4.44-21.74,6.59-33.14,6.59s-22.24-2.16-33.14-6.59c-2.94-1.19-5.91-2.5-8.78-3.76l-.04-.02c-6.15-2.7-12.51-5.49-18.95-7.41-7.19-2.14-13.71-2.93-19.92-2.43-.04,0-3.75,.37-3.75,2.24,0,.03,0,.07,0,.11,0,.04-.45,3.4-.41,10.86-5.2-3.84-15.49-5-15.92-5.04-.5-.05-.98,.16-1.27,.56-.29,.4-.34,.93-.13,1.38l5.37,11.68-7.61,8.41c-.37,.4-.46,.99-.24,1.48,.22,.5,.72,.82,1.26,.82,6.63,0,11.72,2.97,16.64,5.85,4.32,2.52,8.4,4.91,13.07,4.91,6.11,0,9.03-2.91,9.22-5.79,.01-.22,0-.44-.01-.65,.03-.33,.05-.73,.06-.98,.13-2.42,.36-5.94,.44-8.61,.09-.93,.15-1.79,.15-2.56,4.54,1.4,8.89,3.1,12.94,4.75,15.56,6.33,32.32,12.51,51.03,12.51,8.3,0,16.84-1.22,26.08-3.73,8.87-2.4,17.59-5.79,24.95-8.78,3.95-1.6,8.17-3.25,12.56-4.63-.02,.6-.06,1.35-.11,2.19-.1,1.84-.22,4.08-.18,5.89-.05,1.14-.04,2.74-.03,2.96,.11,1.65,1.07,3.2,2.65,4.26,1.64,1.11,3.94,1.69,6.63,1.69"/><path class="cls-2" d="M494.23,218.77c-.17-.05-.25-.07-.42-.12-.08,1.63-.47,1.94-1.35,1.7-.69-.19-1.04-.28-1.74-.46-.79-.2-1.01-.29-1.03-1.47-.02-1.89,0-2.85,.01-4.76,.78,.19,1.16,.28,1.91,.48,.94,.25,1.26,1.03,1.26,2.18,.17,.05,.26,.07,.43,.12,0-1.79,.02-2.69,.02-4.49-.17-.05-.25-.07-.43-.12-.09,.68-.2,1.59-1.27,1.3-.75-.2-1.14-.3-1.91-.48,.02-1.71,.03-2.56,0-4.25-.01-1.01,.2-1.05,.98-.85,.49,.12,.73,.19,1.22,.31,1.02,.27,1.67,.9,1.68,2.61,.17,.05,.25,.08,.42,.13-.03-1.27-.05-1.9-.1-3.16-2.87-.84-4.36-1.22-7.61-1.82,0,.18,0,.27,.01,.45,1.57,.6,1.62,.61,1.62,2.71,.02,4.55-.14,6.99,0,11.42,2.64,.61,3.89,.94,6.31,1.64-.02-1.22-.02-1.84-.02-3.07"/><path class="cls-2" d="M502.96,210.76c-.39-.18-.59-.27-.99-.44-.82,1.89-1.27,2.79-2.19,4.63-.82-2.55-1.22-3.84-2.12-6.42-1.06-.41-1.6-.61-2.7-.99,0,.19,0,.28,0,.47,1.18,.67,1.33,1.03,1.82,2.46,.73,2.19,1.08,3.28,1.77,5.45-1.27,2.44-1.95,3.7-3.19,6.22,.41,.14,.61,.21,1.02,.35,1.01-2.14,1.56-3.2,2.61-5.27,.88,2.82,1.32,4.2,2.28,7.08,.7,.27,1.04,.41,1.73,.68-1.2-3.59-1.73-5.27-2.83-8.76,1.17-2.18,1.75-3.22,2.79-5.45"/><path class="cls-2" d="M511.84,215.8c1.2,.59,1.5,2.14,1.57,2.84,.64,.31,.96,.46,1.61,.76-.17-1.67-1.03-3.55-3.08-4.56-2.93-1.44-3.6,1.53-3.64,5.22-.05,4.48,1.04,7.75,3.81,8.9,1.34,.56,2.43,.42,2.77,.35-.01-.55-.02-.81-.02-1.34-.35,.24-1.17,.64-2.35,.15-2.61-1.09-2.77-5.68-2.75-7.9,.01-2.04,.28-5.32,2.08-4.44"/><path class="cls-2" d="M519.98,230.03c-2.18-.83-2.42-4.41-2.44-6.73-.02-2.53,.06-5.82,2.27-4.84,2.17,.96,2.39,4.41,2.42,6.77,.03,2.32-.03,5.65-2.25,4.8m-.2-12.58c-3.1-1.37-3.79,1.13-3.76,5.19,.03,4.05,.96,7.25,3.98,8.4,2.98,1.14,3.92-1.39,3.87-5.18-.05-3.85-1.12-7.1-4.09-8.41"/><path class="cls-2" d="M528.66,227.13c-.37-.12-.56-.19-.92-.31-.01-1.25-.02-1.86-.03-3.21-.01-1.36-.03-1.77,1.08-1.39,1.39,.48,2.46,1.51,2.47,3.46,0,2.02-1.53,1.8-2.59,1.45m4.37-1.03c-.01-3.24-3.45-4.59-4.68-5.02-1.62-.56-2.39-.85-3.9-1.45,0,.19,0,.28,0,.47,1.43,.88,1.48,.96,1.51,2.85,.05,4.1,.06,5.37,.13,10.03,.68,.23,1.02,.34,1.72,.56-.03-2.7-.04-3.73-.06-5.91,.4,.13,.6,.2,1,.33,1.17,2.54,1.76,3.71,2.95,6.76,.77,.22,1.11,.32,1.86,.52-1.2-3.18-1.79-4.37-3.03-7.03,1.33,.19,2.51-.06,2.5-2.13"/><path class="cls-2" d="M538.63,235.52c-1.14-.23-1.14-.8-1.14-1.55-.02-3.52-.04-4.6-.06-8.16,0-.91,.38-.99,1.34-.79,3.11,.63,3.5,2.9,3.51,5.91,.02,3.43-.66,5.21-3.65,4.59m-.03-11.53c-1.83-.37-2.73-.58-4.49-1.06,0,.19,0,.28,0,.47,1.46,.72,1.52,.81,1.53,2.66,.02,4.02,.04,5.12,.06,9.8,.97,.24,1.46,.35,2.44,.56,3.2,.68,6,.12,5.99-5.25,0-4.81-2.4-6.54-5.54-7.18"/><path class="cls-2" d="M544.66,225.55c1.56,.55,1.62,.65,1.56,2.5-.12,4.04-.14,5.08-.29,9.82,2.67,.37,4.01,.51,6.72,.68,.08-1.29,.12-1.86,.19-2.95-.19-.01-.29-.02-.48-.03-.17,1.45-.65,1.9-1.62,1.82-.75-.06-1.13-.1-1.88-.18-.84-.09-1.06-.2-1.02-1.28,.06-1.73,.08-2.46,.13-3.98,.83,.09,1.24,.13,2.07,.21,1.03,.09,1.39,.65,1.34,1.59,.19,.01,.29,.02,.48,.03,.07-1.47,.1-2.13,.17-3.61-.19-.01-.29-.02-.48-.03-.13,.58-.29,1.33-1.47,1.22-.83-.07-1.25-.12-2.08-.21,.05-1.36,.07-2.03,.12-3.59,.03-.94,.26-1.02,1.13-.94,.54,.05,.82,.08,1.36,.12,1.15,.09,1.87,.63,1.8,2.12,.2,.01,.29,.02,.49,.03,.03-1.11,.05-1.69,.09-3.01-3.37-.18-5.05-.34-8.33-.82,0,.19,0,.29-.01,.48"/><path class="cls-2" d="M559.45,227.05c1.61,.27,1.66,.36,1.57,2.25-.18,4.1-.25,5.09-.45,9.95,2.73-.11,4.1-.22,6.84-.53,.09-1.33,.13-1.91,.21-3.02-.19,.02-.29,.03-.48,.06-.18,1.5-.67,2.04-1.65,2.13-.76,.07-1.14,.1-1.91,.16-.86,.06-1.08,0-1.03-1.11,.08-1.77,.12-2.5,.2-4.03,.84-.06,1.26-.09,2.1-.17,1.04-.09,1.39,.4,1.33,1.36,.19-.02,.29-.03,.48-.05,.08-1.48,.12-2.15,.21-3.65-.19,.02-.29,.03-.48,.05-.14,.6-.3,1.38-1.49,1.49-.84,.07-1.26,.11-2.1,.17,.07-1.37,.11-2.05,.18-3.63,.05-.96,.28-1.08,1.15-1.16,.55-.04,.82-.07,1.36-.12,1.15-.11,1.85,.31,1.77,1.83,.19-.02,.29-.03,.48-.06,.04-1.12,.06-1.71,.11-3.07-3.31,.41-5.01,.54-8.39,.67,0,.2-.01,.3-.02,.49"/><path class="cls-2" d="M574.35,225.68c1.52-.29,1.8,1.06,1.85,1.68,.8-.17,1.19-.26,1.98-.44-.12-1.51-1.03-2.84-3.63-2.33-3.72,.73-4.88,4.17-5.06,7.36-.22,3.86,.98,6.7,4.5,6.06,1.7-.31,3.11-1.24,3.55-1.56,.02-.57,.03-.84,.05-1.37-.46,.49-1.53,1.47-3.02,1.76-3.3,.63-3.28-3.66-3.18-5.6,.1-1.78,.66-5.12,2.96-5.56"/><path class="cls-2" d="M583.61,223.37c1.4-.44,1.7,.89,1.78,1.5,.71-.25,1.07-.37,1.79-.63-.18-1.49-1.04-2.75-3.42-2-3.39,1.08-4.45,4.66-4.55,7.85-.12,3.86,1.14,6.6,4.63,5.59,1.69-.49,2.82-1.49,3.19-1.84,0-.58,0-.86,0-1.38-.39,.52-1.19,1.56-2.66,1.99-3.26,.97-3.38-3.32-3.34-5.26,.04-1.78,.48-5.17,2.59-5.83"/><path class="cls-2" d="M594.76,228.5c.03,1.85-.82,2.38-1.77,2.75-.52,.2-.79,.3-1.31,.49-1.02,.38-1.01,.3-1.03-1.21-.04-4.52-.14-5.41-.18-10.63-1.24,.67-1.87,1-3.11,1.65,0,.2,0,.3,0,.49,1.44-.22,1.48-.15,1.51,1.48,.06,4.19,.13,5.12,.13,10.25,2.45-.85,3.69-1.32,6.17-2.29,.02-1.4,.02-2.01,.02-3.16-.17,.07-.26,.1-.43,.17"/><path class="cls-2" d="M602.8,225.24c-.04,1.58-.46,2.27-1.34,2.63-.68,.28-1.03,.42-1.71,.7-.77,.31-.96,.3-.99-.86-.04-1.85-.07-2.61-.13-4.15,.73-.3,1.1-.45,1.84-.76,.91-.38,1.28,.02,1.32,.99,.17-.07,.26-.1,.43-.18-.07-1.51-.11-2.18-.2-3.64-.17,.07-.25,.1-.42,.17-.06,.61-.12,1.41-1.17,1.84-.73,.3-1.1,.45-1.83,.75-.06-1.37-.1-2.04-.15-3.57-.03-.93,.16-1.11,.91-1.41,.46-.18,.7-.28,1.16-.46,.99-.39,1.63-.17,1.71,1.28,.17-.07,.25-.1,.42-.17-.08-1.06-.12-1.61-.18-2.85-2.86,1.11-4.29,1.67-7.13,2.77,0,.2,0,.29,0,.48,1.38-.21,1.42-.13,1.48,1.73,.14,4.03,.26,5.04,.28,10.2,2.45-.98,3.68-1.49,6.15-2.5,0-1.4,0-2.02-.02-3.17-.17,.07-.26,.11-.43,.18"/><path class="cls-2" d="M605.86,216.85c-.08-1.18,.54-2.07,1.33-2.37,1.17-.45,2.33-.26,2.76-.18-.04-.54-.06-.82-.1-1.4-.4,.05-1.39,.14-2.42,.53-2.12,.79-3.32,2.65-3.2,4.6,.23,3.73,5.23,1.11,5.38,4.27,.09,1.78-.87,2.85-1.85,3.24-1.24,.5-2.5,.07-2.99-.11,.02,.68,.03,1.04,.04,1.8,.33-.02,1.52,0,2.72-.48,2.14-.87,3.91-3.07,3.75-5.76-.24-4.02-5.24-1.39-5.42-4.14"/><path class="cls-2" d="M610.96,212.59c.01,.17,.02,.26,.03,.42,1.48-.29,1.53-.24,1.66,1.2,.34,3.72,.6,4.77,.69,9.98,.68-.26,1.03-.39,1.71-.64-.13-6.59-.56-7.21-.95-12.53-1.26,.61-1.89,.93-3.14,1.57"/><path class="cls-2" d="M618.74,216.97c.48-2.27,1.01-3.74,1.45-5.88,.87,1.81,1.37,2.94,1.97,4.77-1.37,.42-2.05,.64-3.42,1.11m2.6-7.84c-1.15,.34-2.42,.52-3.57,.88,.01,.17,.02,.25,.03,.41,.62-.09,1.19-.23,1.26,.46,.01,.12-.09,.77-.15,1.08-.82,4.02-1.15,5.32-2.29,11.02,.39-.14,.58-.21,.96-.34,.43-2.17,.61-3.07,.96-4.75,1.58-.54,2.37-.8,3.95-1.27,.59,1.38,.88,2.14,1.38,4.03,.65-.18,.97-.27,1.61-.44-2.26-5.92-2.63-7.01-4.15-11.08"/><path class="cls-2" d="M626.17,209.98c.43,3.46,.75,4.6,.83,9.85,2.47-.59,3.69-.83,6.14-1.16,.01-1.45,0-2.09-.04-3.28-.17,.03-.26,.04-.43,.07-.01,1.6-.43,2.2-1.31,2.35-.68,.12-1.03,.18-1.71,.32-.77,.15-.96,.11-1.02-1.07-.09-1.88-.17-2.65-.33-4.14,.75-.17,1.13-.26,1.88-.41,.93-.19,1.34,.27,1.42,1.25,.17-.03,.26-.05,.43-.08-.13-1.52-.22-2.18-.38-3.52-.17,.03-.26,.05-.44,.08-.03,.54-.05,1.27-1.13,1.49-.75,.16-1.13,.24-1.88,.41-.15-1.29-.24-1.89-.4-3.18-.1-.78,.1-.91,.88-1.08,.49-.1,.73-.16,1.22-.26,1.03-.21,1.72,.04,1.88,1.32,.17-.03,.26-.05,.44-.08-.13-.94-.2-1.41-.32-2.43-3.01,.53-4.5,.86-7.46,1.63,.02,.16,.02,.23,.04,.39,1.45-.11,1.49-.07,1.69,1.52"/><path class="cls-2" d="M562.88,171.66s-.09,.02-.14,.03c-.54,.09-1.11-.15-1.41-.61-.39-.59-.52-1.26-.64-1.84-.1-.51-.2-.98-.43-1.39-.12-.21-.08-.48,.1-.64,.18-.16,.45-.18,.65-.04,.45,.31,2.71,1.96,2.68,3.44,0,.5-.33,.91-.82,1.05m-3.06,.17c-.22,.2-.5,.3-.79,.3-.05,0-.1,0-.15,0-.4-.05-.8-.28-1.03-.62-.56-.83-.25-1.66,0-2.33,.11-.3,.22-.59,.25-.85,.02-.21,.2-.38,.41-.4,.36-.03,.57,.25,.67,.39,.02,.03,.04,.06,.06,.07,.24,.26,.89,1.21,.99,1.69,.12,.58,.04,1.34-.4,1.74m-3.22-.25c-.22,.23-.51,.36-.85,.36-.07,0-.13,0-.2-.02-.43-.06-.72-.31-.94-.63-.76-1.1,1.09-3.61,1.35-3.84,.1-.09,.23-.14,.36-.14,.06,0,.11,0,.17,.03,.18,.06,.32,.22,.36,.4,.23,1.1,.49,3.06-.26,3.85m-1.01-23c-.1,.34-.42,.58-.77,.58-.16,0-.31-.05-.45-.14-1.02-.67-1.68-1.74-1.77-2.87-.05-.6,.11-1.16,.46-1.68,.05-.07,.1-.15,.16-.22,.15-.2,.28-.38,.29-.53,0-.44,.36-.78,.8-.78,.22,0,.44,.09,.59,.24,.15,.15,.23,.35,.23,.57,0,.35-.12,.65-.26,.91,.45,.27,.84,.81,.8,1.55-.02,.39-.27,1.22-.36,1.49,.26,.2,.38,.54,.28,.86m10.5,13.37c-.3-.64-1.76-3.44-2.19-4.03-.19-.27-.35-.55-.56-.8-.72-.9-.6-1.85-.51-2.1,.3-.86,.79-2.31,1.65-5.75,.42-1.67,.46-2.54,.5-2.84,.15-1.27,.24-2.07,.12-3.15-.08-.66-.24-1.91-1.02-3.28-.82-1.43-1.85-2.21-2.07-2.37-.29-.21-.8-.57-1.56-.85-.21-.08-1.26-.44-2.67-.32-1.82,.16-3.07,1.02-3.53,1.36-.29,.2-1.39,1.02-2.23,2.52-.81,1.46-.95,2.76-1.02,3.63-.09,1.03-.22,2.4,.44,3.93,.5,1.16,1.26,1.99,1.53,2.27,.38,.41,.75,.71,1.02,.92,.18-.3,.46-.71,.88-1.13,.92-.91,1.4-1.07,2.24-1.11,.33-.01,.83,.13,1.14,.27,.05,.02,.1,.08,.15,.12,.27-.54,.34-1.69,.34-2.25,0-.8-.03-1.29-.23-1.72-.09-.2-.22-.4-.22-.4-.15-.23-.32-.49-.6-.68-.13-.09-.22-.12-.32-.15-.16-.06-.37-.13-.55-.39-.27-.39-.22-.81-.2-.97,.08-.67,.57-1.06,.75-1.19,0,0,.02,0,.02-.01,.22-.13,.83-.4,1.56-.21,.63,.17,.97,.58,1.1,.73,.44,.53,.54,1.09,.6,1.58,.07,.61,.2,2.26-.27,4.27l-.03,.13c-.08,.38-.19,.85-.48,1.35-.13,.22-.22,.36-.3,.48-.06,.08-.12,.13-.13,.19-.19,1.21-.18,8.88-.1,10.12,.03,.44,.07,5.21,.12,6.27,0,.22,.03,.92-.37,1.2-.27,.18-.61,.15-.71,.14-.46-.05-.78-.34-.91-.45-1.75-1.62-2.55-4.13-2.55-4.13-.46-1.44-.98-3.49-1.21-6.06-1.8,2.27-3.28,5.08-4.17,8.42-.76,2.86-.36,5.62,.23,8.13,0,0,.18,.79,.35,1.5,.48-.12,1.01-.15,1.51-.08,.02-.03,.04-.06,.06-.09,0,0,.02-.02,.03-.03,.23-.21,.57-.57,.94-.94h0c.69-.72,1.47-1.53,2.01-1.95,.18-.14,.46-.13,.63,0,.18,.15,.23,.41,.13,.61-.03,.06-.17,.24-.34,.46-.09,.12-.2,.25-.29,.37,.03-.02,.05-.05,.08-.08,.24-.22,.49-.45,.57-.51,.15-.1,.37-.09,.5,.03l.02,.02c.13,.14,.15,.34,.05,.5-1.59,2.52-2.22,3.37-2.53,3.66,0,.07,0,.13,0,.18,0,.57-.16,1.01-.27,1.31-.15,.42-.33,.72-.51,1.04-.11,.2-.24,.39-.37,.57-.34,.5-.66,.98-.74,1.58-.07,.51,.07,.99,.21,1.5,.06,.22,.13,.44,.17,.67,.08,.4,.15,1.01,.16,1.7,.26,.11,.54,.22,.83,.33,.22,.08,.44,.15,.65,.21,.41-.81,.92-1.54,1.47-2.09,.84-.83,.86-1.45,.71-2.66-.03-.27-.09-.52-.15-.77-.14-.61-.29-1.24-.03-2,.15-.43,.41-.83,.7-1.21,.33-.44,.87-.86,1.05-.99,.02-.3,.16-1.28,.31-2.1,.33-1.87,.49-2.12,.92-2.15h.04c.43,0,.56,.17,1.07,2.15,.16,.63,.4,1.62,.45,1.96,.15,.28,.3,.55,.45,.83,.1,.18,.19,.35,.29,.53,.28,.51,.35,.94,.37,1.21,.03,.4,0,.82-.24,1.59-.1,.31-.2,.6-.22,.91-.07,.71,.18,1.54,.7,2.34,.12,.18,.26,.37,.45,.59,.61,.73,1.19,1.47,1.64,2.32,.16-.03,.34-.07,.41-.08,.14-.03,.38-.1,.61-.18h.02c0-1.03,.15-1.99,.26-2.52,.05-.22,.11-.45,.17-.66,.15-.51,.28-.99,.21-1.5-.08-.6-.4-1.08-.74-1.58-.12-.18-.25-.38-.36-.57-.18-.31-.39-.61-.51-1.04-.21-.76-.14-1.4,0-1.89-.27-.33-.78-1.19-1.93-3.41-.06-.11-.03-.25,.07-.33,.05-.04,.11-.06,.17-.06s.12,.02,.17,.06c.22,.17,.58,.54,.98,.96-.33-.6-.62-1.14-.72-1.36-.07-.16-.01-.34,.13-.44,.06-.05,.14-.07,.21-.07,.09,0,.18,.03,.25,.1,.5,.45,1.2,1.31,1.83,2.08,.24,.29,.46,.56,.65,.79,.37-.05,.76-.03,1.16,.06v-.04c0-.07,.12-.45,.27-.9,.19-.55,2.06-6.02-.85-12.13"/><path class="cls-2" d="M658.4,175.9c-.6,2.44-6.53,8.37-9.16,8.39-2.53,0-4.22-3.89-2.21-5.55-1.51-.37-3.69-.62-5.05-.93,.52-1.6,.65-3.67,.53-5.4l3.71,.54c.16-1.76-2.99-18.07-2.99-18.07l-17-.57s1.58,13.41,2.15,16.92c1.46,.03,4.34,.42,5.39,.56,.63,1.63-.18,3.99-1.12,5.17l-4.31-.66c.25,11.44-16.05-6.72-5.31-5.05-.51-3.78-2.07-15.62-2.07-15.62l6.7-6.53,15.63,.5c-.47-11.05,16.52,5.83,5.47,5.26,.38,5.25,1.99,12.51,3.11,18.53,2.42-2.28,7.11-1.32,6.52,2.5m-30.26-15.97c-.08-.02-.29-3.18-.47-4.29l14.48,.43c1.03,5.37,2.29,12.36,2.67,15.38l-2.48-.36c-1.2-4.86-3.91-8.86-14.2-11.15m13.06,14.45c-2.14,1.59-3.74-1.26-5.9,.23,.1-.44,.13-.68,.14-1.3,1.24-2.41,3.76,.24,5.73-1.35,.1,.81,.11,1.62,.03,2.42m-2.48-5.97c.12-.1,.65-.6,.83-.78,.66,.99,1.12,2.03,1.39,3.09-1.7,1.62-4.12-.9-5.73,.9-.16-.57-.48-1.21-.8-1.66,1.14-1.3,2.78-.28,4.32-1.55m-5.77,.08c-.44-3.51,3.68,.12,3.84-3.72,.62,.46,1.16,.94,1.64,1.45-.76,3.27-3.29,1.07-4.8,2.83-.27-.26-.51-.44-.68-.56m.38,1.96c-1-.13-2.5-.32-3.84-.43-.09-.53-.2-1.14-.32-1.81,2.52,.83,3.66,1.64,4.16,2.24m-1.11-8.08c1.39,.5,2.58,1.09,3.61,1.75,.03,2.89-4.22-.15-4.13,3.71-.59-.27-1.16-.5-1.64-.66-.05-.58,.06-1.34,.19-1.57,.73-.67,2.71-1.31,1.97-3.22m-3.3,4.42s0,0-.01,0c-.02-.1-.04-.22-.06-.34,.02,.11,.04,.22,.07,.35m-.08-.44c-.23-1.47-.61-4.66-.71-5.22,1,.2,1.69,.48,2.57,.74,.47,.38,.37,1.6,.06,1.87-1.01,1.18-2.17,.88-1.92,2.61m11.33,12.01c-2.03,.75-2.64-1.87-6.08-1.09,.34-.44,.67-.99,.93-1.66,2.39-.94,3.68,1.6,5.93,.4-.18,.81-.45,1.59-.77,2.35m-2.21,3.52c-2.66,.94-1.56-2.43-6.33-2.22,.63-.48,1.05-.93,1.46-1.28,3.57-.55,3.17,1.18,6.16,1.76-.39,.63-.83,1.21-1.29,1.74m-9.54-1.38c.74-.79,1-1.65,1.16-2.9l2.07,.38c-.07,.08-2.37,1.89-3.22,2.53m6.69,4.03c-3.15-.39-3.03-2.71-6.43-2.61,1.24-1.71,5.21-1.39,5.41-.56,.3,.69,1.63,1.88,2.54,1.87-.51,.46-1.06,.92-1.52,1.29m-2.59,1.93c-4.21,.14-2.77-2.53-5.78-3.05,.29-.22,.58-.44,.86-.65,.86,.29,2.52,.74,3.19,.82,.98,.36,1.53,1.85,2.88,2.06-.38,.27-.77,.55-1.15,.82m-4.09,2.94c-3.41-.17-1.82-2.81-5.04-3.54,.63-.44,1.26-.89,1.88-1.35,3.47-.19,2.03,2.76,5.77,3.02-.97,.7-1.87,1.34-2.62,1.88m-2.35,1.62c-.73-.28-1.29-.67-1.79-1.09-.58-.49-1.08-1.01-1.7-1.43-.53-.36-1.16-.66-1.99-.79,.56-.29,1.03-.48,1.43-.59,.78-.2,1.31-.09,1.71,.19,.18,.08,.35,.18,.48,.31,.22,.22,.34,.5,.49,.82,.03,.08,.07,.16,.11,.24,.35,.57,.74,1.14,1.38,1.49,.22,.12,.47,.21,.75,.26-.29,.2-.59,.39-.88,.59m-1.83,1.23c-.26-.42-.56-.72-.89-.95-.57-.4-1.23-.57-1.89-.69-.49-.02-.97,0-1.72-.35-.08-.04-.15-.08-.22-.12-.51-.21-.99-.54-1.38-1.09,.32-.14,.67-.32,1.04-.52,1.06,.01,1.8,.2,2.38,.5,.68,.35,1.17,.85,1.74,1.39,.45,.43,.96,.9,1.66,1.34-.24,.16-.48,.33-.72,.49m-1.92,1.23c-.27-.14-.73-.26-1.24-.42-.71-.2-1.5-.46-1.95-1.01-.22-.23-.38-.5-.45-.84,.49,.21,.89,.27,1.25,.29l.22-.02c.25-.04,.61-.06,1.13,.14,.5,.15,1.05,.5,1.8,1.38-.25,.16-.51,.32-.76,.48m-3.03,1.87c-.57-.33-1.3-.86-2.02-1.49-.77-.68-1.52-1.49-2.02-2.33-.44-.74-.69-1.5-.56-2.21,.65-.06,1.3-.12,1.96-.15,0,.3,.02,.58,.05,.85,.08,.73,.28,1.32,.58,1.82,.45,.75,1.13,1.28,1.94,1.74,.7,.32,1.39,.54,1.68,.81-.53,.33-1.08,.65-1.62,.97m-3.22,1.94s-.09-.09-.15-.14c-.01-.02-.03-.03-.04-.05-.62-.63-1.52-1.6-2.36-2.68-.65-.83-1.25-1.72-1.65-2.56-.38-.8-.58-1.55-.46-2.14,.58-.09,1.16-.16,1.75-.23-.11,.71,.12,1.5,.53,2.29,.51,.98,1.32,1.95,2.14,2.76,.73,.72,1.46,1.32,2.01,1.69-.59,.36-1.18,.72-1.78,1.07m-2.99,1.73c-.15-.17-.33-.38-.53-.61-.67-.8-1.55-1.94-2.32-3.16-.64-1.02-1.21-2.09-1.5-3.08-.22-.71-.29-1.38-.16-1.95,.44-.09,.88-.16,1.32-.24-.08,.65,.13,1.45,.51,2.29,.45,.99,1.12,2.04,1.82,3,.88,1.19,1.79,2.25,2.38,2.86-.51,.3-1.02,.59-1.52,.88m-12.36,7.09l-.89,.14c-.14-.28-.37-.57-.63-.85l8.35-5.74-9.3,4.78c-.12-.14-.24-.27-.35-.39-.2-.23-.36-.44-.43-.68-.05-.18-.05-.38,.04-.61l10.16-5.09-9.45,3.55c-.1-.19-.41-.42-.75-.68-.41-.32-.86-.69-1.04-1.11-.09-.22-.12-.45-.02-.7l10.5-2.8-10.55,1.47c-.42-.28-.71-.46-.89-.63-.24-.21-.29-.39-.2-.7,.06-.21,.18-.47,.36-.85l10.36-1.76-10.61,.51c-.13-.16-.3-.33-.53-.5l.4-.48c4.09-.64,8.01-1.65,11.96-2.48-.12,.59-.02,1.3,.22,2.07,.33,1.06,.93,2.23,1.6,3.33,.82,1.35,1.75,2.59,2.41,3.41,.13,.16,.25,.31,.36,.44-3.7,2.11-7.42,4.2-11.09,6.35m18.13-38.75c-2.29-2.97,1.67-2.55,.03-5.91,.64-.12,.8-.07,1.46-.2,.13,1.13,.27,2.58,.71,5.49-.58,.15-1.22,.46-2.2,.62m-1.13-3.62c-1.06,1.3-1,2.48-.33,3.79-2.04-.05-2.91-.23-4.42-.66,1.13-2.92,2.86-.83,3.3-5.04,.38-.04,.81-.11,1.28-.18,.12,.58,.64,1.52,.18,2.09m-5.81,2.76c-.15-.03-.83-.31-.83-.31,.42-2.15,.51-2.97,.7-4.88,.61,.16,.88,.48,3.35,.58,.19,2.77-2.26,1.39-3.22,4.61m-.13-7.99c.01-3.46,.02-7.24,.02-11.17,1.27,.77,2.78,1.73,2.6,1.69-2.96,3.68,1.01,8.72,5.3,6.99l.51,4.03c-1.27,.43-7.09,.91-8.46-.18,.02-.45,.02-.9,.02-1.35m13.35-54.45c.28,.46,9.64,14.96,9.42,14.9-7.06,3.45-14.82,4.36-22.76,3.28,0-5.02-.01-9.81-.02-14.63,4.24-.33,10.64-1.35,13.36-3.55m1.21-4.32c.57-.55,2.36-1.28,2.83-.46,0,0,9.47,15.62,11.23,18.19,1.79,3.56-2.65,6.33-5.52-.45l-9.66-15.11c-.46-1.18,.92-1.96,1.13-2.16m10.07-12.24c.55-1.44,1.19-5.85,2.34-5.6,1.78,.39,1.78,1.38,1.78,2.77,.01,4.17-4.08,9.76-6.85,12.76-1.04,1.13-3.16,3.72-3.56,1.11,2.46-3.1,4.85-7.23,6.3-11.04m5.61-2.23c3.44,1.13,.94,5.15,.17,6.32-.21,.63-7.7,10.91-9.14,10.88-.33,.01-1.16-1.2-.99-1.75,.18-.58,1.77-1.77,2.31-2.44,9.03-11.24,6.34-13.44,7.65-13.01m4.05,2.98c3.46,3.53-5.52,12.25-9.63,16.15-.68,.51-1.35,1.66-2.37,.5-.43-.7-.66-.96,.39-1.84,1.14-.96,2.97-3.26,4.12-4.62,2.52-2.95,5.3-7.78,6.03-9.31,.61-1.26,1.15-.98,1.45-.88m1.81,3.78c5.7,.77-8.56,14.31-10.72,15.73-1.07,.74-2.42-.67-1.67-1.24,6.85-5.71,6.65-5.99,12.39-14.49m2.99,2.36c2.59,1.95-3.45,7.98-3.8,8.34-.59,.62-9.85,11.4-9.52,6.62,5.65-5.56,6.75-6.1,11.5-13.24,.35-.52,.94-1.9,1.82-1.72m2.05,3.5c2.78,2.71-9.07,12.85-11.53,14.85-.53,.36-1.65,1.1-2.24,.08-.68-.62,2.69-3.19,3.03-3.51,4.01-3.78,6.53-7.02,9.79-11.35,.15-.2,.29-.71,.95-.07m.7,3.48c.37-.48,1.46-.88,1.81-.51,2.87,1.27-17.69,22.92-14.26,13.62,4.09-3.74,9.26-8.34,12.44-13.11m-34.76,42.9c-1.32,1.12-2.37,2.06-3.48,3.41-1.26-.89-3.42-2.19-3.42-2.35l-.06-5.85c2.11,1.51,4.94,3.35,6.95,4.79m2.92-.56c3.87-2.01,6.56,1.52,4.17,4.96-1.54,1.52-5.6,6.68-8.02,6.38-7.87-1.26,.57-9.56,3.85-11.35m-12.47-10c-2.57-.5-6.05-.14-8.59,.68-1.37,.44-2.61,1.13-3.9,1.74-3.08,1.48-7.79,1.01-10.25,.05-2.6-1.01-4.32-2.01-6.16-3.77-4.09-3.9-8.33-7.92-15.3-6.43-2.12,.46-3.88,1.64-5.58,2.78-2.33,1.57-4.52,3.05-7.6,2.78-2.41-.21-5.01-2.33-7.53-4.37-1.82-1.48-3.7-3-5.53-3.84-6.58-2.98-10.52-3.43-16.82,.07-1.78,.99-11.84,7.45-15.11,9.55,0-6.85,.01-13.69,.02-19.88,.01-9.9,.02-17.92,0-20.99h103.05c-.02,3.08,0,11.1,0,20.99,0,6.47,.02,13.65,.02,20.81-.24-.06-.49-.12-.73-.17m.45,27.09c-.64,10.81-4.73,17.65-13.04,24.62-6.94,5.82-37.67,20.37-37.72,20.38-.13,0-32.13-14.42-39.08-20.33-8.04-6.83-12.88-14.51-12.91-26.3-.02-10.11,.11-19.7,.11-24.44,5.4-3.93,8.29-5.57,13.91-9.2,2.56-1.66,5.93-3.34,9.27-3.3,4.31,.06,8.16,2,10.95,3.92,3.32,2.28,6.68,6.33,10.93,6.71,2.85,.25,5.3-.95,7.62-2.46,2.06-1.34,4.12-2.83,6.53-3.32,2.87-.57,5.87,.39,8.34,1.94,3.4,2.13,4.71,3.93,7.04,5.89,1.37,1.15,6.15,3.99,11.64,3.43,2.81-.28,5.18-1.57,7.73-2.65,2.57-1.09,6.09-.88,8.83-.23,.23,.05,.23,19.02-.14,25.35M481.06,52.83c-.33-.29,2.8-3.88,3-3.94,.14,.1,.31,.22,.49,.34l.61,.43s.05,.03,.07,.05c.5,.35,1.09,.77,1.76,1.24,1.24,.87,2.75,1.94,4.47,3.16,.39,.28,.8,.57,1.22,.86,.55,.38,1.11,.78,1.68,1.19,.38,.27,.78,.55,1.18,.83,1.05,.74,2.14,1.51,3.27,2.31,.51,.36,1.04,.73,1.57,1.11,2.5,1.77,5.16,3.64,7.87,5.55,.73,.52,1.46,1.03,2.2,1.55,3.43,2.42,6.92,4.88,10.26,7.24,.44,.31,.88,.62,1.31,.93l.65,.46c4.39,3.1,8.47,5.98,11.81,8.34,4.14,2.92,7.14,5.04,8.17,5.77l-8.65-.08-52.94-37.33Zm26.96,26.46c-2.31-1.6-2.16-1.49-3.52-2.51-.25,.08-3.31,4.62-3.31,4.62l3.48,2.48-5.19,7.12-2.32-1.65,3.32-4.55-4.93-3.51-3.32,4.55-4.24-3.02s3.32-4.62,4.04-5.55l3.4,2.42,3.6-4.92s-2.4-1.75-3.4-2.42l2.43-3.32c-3.01-2.14-5.5-3.92-5.5-3.92,0,0-1.33,2.09-2.43,3.32-3.12-2.22-3.73-2.65-3.73-2.65,0,0-2.13,2.96-3.83,5.25l3.73,2.65-3.81,5.22-4.55-3.24,3.3-4.56-4.38-3.12-3.38,4.51c-.84-.59-2.54-1.81-2.54-1.81l5.19-7.12,4.15,2.96,3.35-4.59-4.15-2.96,2.7-3.69c.72,.5,2.05,1.43,3.75,2.63l2.08,1.46,6.12,4.37c4.85,3.46,10.05,7.18,13.48,9.63,1.36,.97,2.44,1.74,3.1,2.22,0,0-1.06,1.54-2.69,3.69m28.74-7.14h13.53c.27,6.61-.64,11.2-1.55,18.01h-4.19l-9.58-6.99c.6-2.95,1.46-8.8,1.79-11.02m-11.88-.96c-.14,0-.23-.05-.3-.12-.09-.1-.13-.24-.15-.4-.02-.16,0-.32,0-.45h0c0-.14,.05-.24,.12-.3,.1-.1,.26-.13,.42-.15,.15-.01,.3,0,.43,0h66.23c.1,0,.26-.01,.41,0,.12,0,.25,.03,.35,.07,.14,.07,.23,.18,.22,.37h0c-.02,.22,.02,.54-.07,.75-.06,.13-.17,.22-.38,.22h-67.26Zm1.49-2.37v-1.43c.07-.06,.13-.12,.19-.19,.05-.06,.1-.12,.14-.18,.04-.06,.07-.12,.1-.18,.01-.03,.02-.05,.03-.07,.19-.44,.19-.97,0-1.41-.01-.02-.02-.05-.03-.07-.03-.06-.07-.12-.1-.18-.04-.07-.09-.12-.14-.18-.06-.07-.12-.13-.19-.19v-5.2c.23,.43,.45,.87,.68,1.3,.63,1.23,1.24,2.45,1.89,3.36,1.05,1.48,2.18,2.13,3.59,.67,.52-.53,1.07-1.34,1.67-2.5,.45,.98,.88,1.71,1.3,2.22,.28,.34,.55,.58,.82,.75,.35,.21,.69,.28,1.01,.23,.59-.09,1.14-.55,1.66-1.22,.78-1,1.47-2.46,2.09-3.78,.45-.96,.86-1.85,1.23-2.43,.33,.52,.72,1.41,1.17,2.39,.57,1.26,1.23,2.69,1.99,3.7,.94,1.25,2.04,1.86,3.31,.73,.54-.49,1.12-1.29,1.73-2.51,.22,.43,.58,1.11,1.04,1.74,.43,.58,.93,1.11,1.48,1.33,.38,.15,.79,.16,1.19-.08,.01,0,.02-.02,.03-.02,.08-.05,.16-.11,.24-.17,2.1-1.6,4.03-6.75,4.03-6.76,.33,.52,.7,1.36,1.13,2.29,.53,1.17,1.14,2.47,1.83,3.42,.43,.59,.89,1.04,1.39,1.26,.29,.12,.59,.17,.91,.1,.41-.08,.85-.35,1.31-.84,.46-.5,.94-1.22,1.45-2.24,.46,.96,.9,1.66,1.33,2.15,.43,.5,.85,.79,1.25,.9,.28,.08,.55,.07,.81,0,.52-.15,1-.56,1.45-1.13,.78-.96,1.46-2.35,2.05-3.58,.46-.96,.87-1.81,1.22-2.28,.26,.41,.58,1.08,.95,1.85,.55,1.15,1.2,2.51,1.95,3.56,.58,.81,1.22,1.43,1.91,1.6,0,0,.01,0,.02,0h0c.33,.08,.68,.04,1.03-.13,.29-.14,.58-.37,.89-.71,.43-.48,.87-1.17,1.32-2.12,.45,.89,.88,1.54,1.3,2.01,.35,.4,.69,.66,1.02,.81,.36,.16,.7,.18,1.04,.09,.61-.17,1.18-.69,1.72-1.4,.73-.95,1.41-2.23,2.09-3.43,.26-.46,.51-.91,.77-1.32v5.12c-.37,.16-.63,.43-.8,.75-.26,.52-.26,1.16,0,1.68,.17,.32,.43,.6,.8,.75v1.28h-64.29v-.12Zm56.35-8.71s0,0-.02,0h0s-.01,.01-.01,.01c-.1,.09-.59,1.1-.64,1.19-.03,.06-.03,.07,0,0-.36,.73-1.77,4.09-2.92,2.53-.17-.26-.43-.46-.6-.75-.03-.05-.06-.1-.09-.15,0,0,0,0,0,0-.41-.68-.83-1.43-1.24-2.2-.52-.99-1.04-2-1.53-2.94-.26-.5-.51-.97-.75-1.41-.09-.17-.18-.33-.27-.49-.45,.61-1,1.76-1.61,3.03-.74,1.54-2.92,5.74-3.49,5.34h0c-.63-.06-1.69-1.9-2.11-2.67-.31-.56-.59-1.09-.84-1.42l-.06-.11-.06,.11c-.25,.33-.53,.85-.83,1.41-.42,.77-.89,1.61-1.37,2.15-.24,.27-.49,.47-.74,.53-.35-.12-.73-.49-1.12-1.03-.84-1.13-1.74-2.96-2.5-4.55-.57-1.19-1.06-2.25-1.39-2.79-.33,.53-.82,1.59-1.39,2.78-.76,1.6-1.67,3.44-2.5,4.57-.4,.54-.78,.91-1.12,1.02h0c-.25-.06-.5-.26-.74-.53-.48-.53-.95-1.37-1.37-2.14-.31-.56-.59-1.09-.84-1.42l-.06-.11-.06,.11c-.24,.33-.53,.85-.83,1.42-.42,.77-.89,1.61-1.37,2.14-.24,.27-.49,.47-.74,.53-1.06-.15-2.81-3.93-3.57-5.48-.41-.86-.81-1.66-1.18-2.26l-.35-.63-.03,.06s-.03-.04-.05-.06c-.27,.54-.57,1.14-.89,1.78-.65,1.3-1.39,2.73-2.13,4.04-.45,.79-.89,1.54-1.32,2.19-.49,.58-1.02,.37-1.52-.17-.42-.57-1.04-1.66-1.51-2.5-.31-.63-.53-1.12-.62-1.15-.07,.03-.19,.23-.35,.53l-.25,.38c-.09,.14-.21,.36-.38,.66-.11,.2-.99,1.66-1.23,1.98-.28,.3-.56,.51-.83,.56-.11,.02-.22,.02-.33-.02-.14-.04-.28-.14-.41-.3h0c-.92-1.21-1.61-2.22-2.06-3.2-.4-.87-.62-1.72-.64-2.67-.03-1.16,.22-2.46,.77-4.14h59.75c.04,.14,.08,.3,.12,.45,.03,.13,.07,.26,.1,.4,.02,.06,.03,.12,.04,.18,.03,.12,.05,.23,.08,.35,.13,.6,.24,1.24,.32,1.88,.02,.12,.03,.23,.04,.34,.02,.12,.03,.23,.04,.35,.02,.23,.04,.46,.06,.69,0,.02,0,.04,0,.07,.02,.29,.03,.59,.04,.89h0c-.13,.23-.25,.46-.36,.67-.27,.51-.55,1.02-.83,1.53-.02,.02-.72,1.27-.93,1.62-.2,.3-.39,.53-.58,.69-.17,.11-.35,.22-.45,.23-.09,.02-.19,.02-.29,.03-.39-.07-.82-.45-1.36-1.21-.45-.64-.98-1.55-1.63-2.75l.22,.33c-.17-.28-.31-.5-.31-.5m-55.83-7.18c-.27,0-.42-.23-.44-.38-.02-.16-.02-.46-.02-.59h0c0-.06,0-.45,.52-.45h61.25c.29,0,.73,0,1.15,0h.79c.06,0,.12,.01,.17,.03,0,0,0,0,.01,0,.04,.02,.08,.04,.11,.08,.06,.05,.1,.12,.13,.21,.08,.2,.08,.46,.02,.67-.05,.16-.12,.29-.23,.36,0,0,0,0-.01,0-.02,.01-.03,.02-.05,.02-.05,.02-.1,.03-.15,.03h-2.06s-60.97,0-61.2,0m3.04-3.45c.28-.15,1.39-1.56,.14-2.93l-.12-4.12c.22,.4,.44,.81,.66,1.23,.55,1.04,1.11,2.07,1.71,2.83,.87,1.11,1.81,1.6,2.89,.61,.48-.43,.98-1.15,1.51-2.23,.52,1.06,1.01,1.77,1.47,2.21,1.11,1.04,2.08,.52,2.95-.63,.62-.81,1.2-1.93,1.75-3.03,.38-.76,.74-1.5,1.1-2.12,.23,.4,.48,.89,.73,1.4,.59,1.18,1.24,2.52,1.97,3.51,.83,1.13,1.74,1.79,2.75,1.2,.07-.04,.13-.08,.19-.13,0,0,0,0,0,0,.53-.39,1.08-1.13,1.66-2.34,.53,1.16,1.05,1.89,1.56,2.29,.19,.15,.38,.26,.56,.32,.01,0,.03,.01,.04,.02,.89,.28,1.73-.42,2.49-1.5,.73-1.03,1.39-2.39,1.99-3.58,.21-.41,.4-.8,.59-1.15,.25,.44,.5,.96,.77,1.49,.58,1.16,1.21,2.43,1.89,3.37,.92,1.26,1.93,1.94,3.05,.96,.48-.41,.98-1.13,1.5-2.24,.65,1.3,1.25,2.07,1.81,2.44,.99,.66,1.88,.09,2.68-.97,.66-.87,1.26-2.07,1.82-3.2,.35-.7,.68-1.36,.99-1.89,.2,.38,.42,.8,.65,1.26,.6,1.19,1.26,2.55,1.99,3.56,.76,1.06,1.59,1.75,2.49,1.46h0c.16-.05,.33-.14,.49-.26,.01,0,.02-.01,.03-.02,.02-.02,.04-.03,.06-.05,.51-.41,1.04-1.16,1.59-2.35,.49,1.02,.95,1.71,1.4,2.14,.36,.35,.7,.53,1.03,.58,.02,0,.04,0,.06,0,.71,.07,1.37-.46,1.99-1.29,.68-.91,1.32-2.15,1.92-3.31,.13-.25,.25-.49,.38-.72l.02,3.96c-.42,.14-.58,.46-.76,.81-.29,.54-.29,1.24,0,1.78,.19,.34,.35,.64,.76,.78v.85c-4.78-.03-52.38-.04-57.21-.01v-.99Zm4.41-11.49c.06-.17,.14-.35,.27-.6h47.84c.61,.32,2.6,6.54,2.6,6.54,0,0-.81,1.29-1.42,2.04-.19,.33-.81,.43-1.08,.17-.71-.9-1.68-2.6-2.26-3.58-.69,.89-1.64,3.46-2.7,3.76-1.7-.8-3.4-5.9-4.57-7.5-1.16,2.01-2.6,5.19-3.96,7.18-1.43,1.42-2.63-2.64-3.26-3.42-.93,.98-1.44,3.54-2.86,3.72-.21-.03-.39-.14-.51-.31-1.34-1.98-2.78-5.09-3.91-7.13-1.12,2.04-2.57,5.15-3.91,7.13-.12,.17-.3,.28-.51,.31-1.42-.18-1.93-2.73-2.86-3.72-.62,.75-1.84,4.85-3.26,3.43-1.36-1.99-2.8-5.16-3.96-7.18-1.17,1.6-2.87,6.7-4.57,7.5-1.05-.31-2.01-2.88-2.7-3.76-1.75,2.76-2.71,6.11-4.51,1.15,.45-1.8,2.09-5.68,2.1-5.72m-1.43-2.26c0-.76,.83-.71,1.04-.71h49.68c.7,0,.63,1.42,0,1.42h-49.61c-.4,0-1.11,0-1.11-.71m2.98-1.67c1.63-.35,1.81-2.84,.21-3.39l-.03-2.7c.18,.33,.36,.67,.55,1,.15,.27,.3,.54,.45,.8,.17,.29,.34,.57,.52,.82,.76,1.09,1.59,1.67,2.58,.68,.35-.35,.71-.88,1.1-1.66,.4,.83,.79,1.39,1.16,1.73,.92,.85,1.74,.33,2.48-.69,.54-.74,1.04-1.75,1.51-2.67,.02-.03,.03-.07,.05-.1,.18-.35,.35-.68,.51-.98,.02-.03,.03-.06,.05-.09,1.33,2.38,3.27,7.94,5.78,2.9,1.24,2.7,3.04,2.65,4.11,.1,.54-.93,1.12-2.04,1.62-3,1.41,2.49,3.26,7.99,5.76,2.81,2.49,5.13,4.27-.18,5.76-2.8,1.32,2.35,3.33,8.05,5.76,2.85,1.52,3.25,2.89,2.19,4.01,.4,.2-.32,.4-.67,.59-1.03,.3-.55,.57-1.12,.82-1.61v3.17c-1.91,.38-1.72,3.34,.22,3.48-.02,0-.1,0-.22,0-.16,0-10.55,0-10.93,0,2.18-.19,2.01-3.58-.2-3.53-2.22-.04-2.39,3.34-.2,3.53h-11.15c2.19-.19,2.02-3.58-.2-3.53-2.21-.04-2.39,3.34-.2,3.53h-11.15c2.19-.19,2.02-3.58-.2-3.53-2.21-.04-2.38,3.34-.2,3.53h-11.14c.14,0,.22,0,.24-.02m2.35-5.79c12.05-17.75,30.28-15.36,41,.6-1.75,3.25-2.2-.13-3.47-1.58-.63,.83-1.02,2.7-2.15,3.01-1.52-1.34-2.43-4.29-3.56-5.94-1.16,1.63-2.01,4.7-3.63,5.94-.88-.47-1.52-2.22-2.13-3.04-.61,.82-1.25,2.56-2.13,3.03-1.62-1.24-2.46-4.31-3.63-5.94-1.13,1.63-2.04,4.58-3.54,5.92-1.08-.24-1.51-2.22-2.26-2.99-.63,.83-1.03,2.7-2.15,3.01-1.52-1.34-2.43-4.29-3.56-5.94-1.16,1.63-2.01,4.7-3.63,5.94-.88-.47-1.52-2.22-2.13-3.04-.49,.82-1.3,2.22-1.89,2.95-.73,.36-1.13-.97-1.57-1.4,.07-.17,.41-.56,.41-.56m17.64-14.84c.16-.32,.58-.73,1.2-.73h2.98c.66,0,1.09,.69,1.12,.74h0c.2,.35,.36,.85,.52,1.59,0,0-3.28-.58-6.35,0,0,0,.35-1.25,.53-1.6m-4.28,58.72h13.8c-.31,5.97,.78,11.58,1.39,18.14h-16.6c.62-6.57,1.71-12.16,1.4-18.14m30.42,11.02l-9.58,6.99h-4.19c-.91-6.81-1.82-11.4-1.55-18.01h13.53c.34,2.22,1.19,8.08,1.79,11.02m51.2-34.33s2.81,3.33,2.97,4.06c.06,.26-53.21,37.39-53.21,37.39h-8.47l58.71-41.45Zm4.28,10.13l-4.15,2.96,3.35,4.59,4.15-2.96,5.19,7.12s-1.71,1.22-2.54,1.81l-3.38-4.51-4.38,3.12,3.3,4.56-4.55,3.24-3.81-5.22,3.73-2.65c-1.7-2.29-3.83-5.25-3.83-5.25,0,0-.61,.43-3.73,2.65-1.1-1.24-2.43-3.32-2.43-3.32,0,0-2.49,1.78-5.5,3.92l2.43,3.32c-.99,.67-3.4,2.42-3.4,2.42l3.83,5.25,3.4-2.42c.72,.94,3.81,5.22,3.81,5.22l-4.24,3.02-3.32-4.55-4.92,3.51,3.32,4.55-2.32,1.65-5.47-7.39,3.48-2.48s-2.79-4.26-3.04-4.35c-1.35,1.02-1.21,.91-3.52,2.51-1.64-2.15-2.69-3.69-2.69-3.69,.71-.51,1.86-1.33,3.29-2.35,3.47-2.48,8.62-6.16,13.42-9.59,2.99-2.14,5.84-4.17,8.07-5.74,1.69-1.2,3.02-2.13,3.76-2.64l2.69,3.69Zm-132.43,107.51c-.95-3.21-3.41-1.84-3.22-4.61,2.23-.43,3.01-1.08,3.37-1.31,.09,1.35,.1,3.26,.51,5.72,0,0-.55,.27-.66,.19m-3.37,.92c-.75,.17-1.52,.18-2.3,.11,1.92-3.87-1.36-2.64-.16-5.88,.47,.08,.9,.14,1.28,.18,.44,4.21,2.17,2.12,3.3,5.04-.73,.21-1.47,.4-2.13,.55m-3.03-.94c-.09,.25-.23,.62-.54,.88-.98-.16-1.63-.47-2.21-.62,.44-2.91,.58-4.36,.71-5.49,.66,.13,.82,.08,1.46,.2-1.46,2.99,1.43,2.77,.58,5.02m-4.73,4.8c10.74-1.68-5.56,16.48-5.31,5.05l-4.31,.66c-.94-1.18-1.74-3.54-1.12-5.17,1.05-.15,3.94-.54,5.39-.56,.57-3.51,2.15-16.92,2.15-16.92l-17,.57s-3.15,16.3-2.99,18.07l3.7-.54c-.13,1.74,.01,3.81,.53,5.4-1.36,.32-3.53,.56-5.05,.93,2.02,1.66,.32,5.55-2.21,5.55-2.63-.02-8.56-5.95-9.16-8.39-.54-3.86,4.03-4.78,6.52-2.5,1.12-6.02,2.73-13.28,3.11-18.53-11.05,.57,5.94-16.31,5.47-5.26l15.63-.5,6.7,6.53s-1.56,11.85-2.07,15.62m-4.56,11.48c.28,.22,.57,.43,.86,.65-3,.52-1.59,3.2-5.78,3.05-.38-.28-.77-.55-1.15-.82,1.35-.21,1.9-1.7,2.88-2.06,.67-.08,2.34-.54,3.19-.82m2.33,1.75c.63,.46,1.26,.91,1.89,1.35-3.21,.73-1.63,3.37-5.04,3.54-.75-.53-1.65-1.18-2.62-1.88,3.74-.26,2.29-3.2,5.77-3.02m3.84,2.68c.28,.18,.56,.35,.83,.52-2.64,.42-3.15,2.44-5.47,3.31-.29-.2-.59-.39-.88-.59,2.91-.67,1.69-4.15,5.53-3.24m3.28,1.86c-1.6,2.27-4.53,.69-6.1,3.2-.24-.16-.48-.33-.73-.49,2.35-1.47,2.5-3.2,5.78-3.24,.37,.2,.72,.38,1.04,.52m.86,2.81c.6-1.52,.67-2,.64-2.69,.66,.03,1.31,.09,1.96,.15,.42,2.18-2.91,5.06-4.6,6.03-.54-.33-1.08-.64-1.61-.97,.62-.57,2.97-.89,3.61-2.52m5.87-2.14c.45,2.11-3.19,6.13-4.65,7.57-.6-.35-1.18-.71-1.78-1.07,1.64-1.1,5.04-4.33,4.68-6.74,.58,.07,1.17,.15,1.75,.23m2.85,.5c.61,2.54-3.08,7.2-4.51,8.8-.51-.29-1.02-.58-1.53-.88,1.47-1.54,5.01-5.8,4.72-8.15,.44,.08,.88,.15,1.32,.24m13.32,2.77l.4,.48c-.23,.17-.4,.34-.53,.5l-10.62-.51,10.36,1.76c.63,1.38,.6,1.29-.73,2.18l-10.55-1.47,10.5,2.8c.44,1.11-1.51,1.93-1.8,2.48l-9.45-3.55,10.16,5.09c.28,.7-.25,1.11-.75,1.68l-9.29-4.78,8.35,5.74c-.27,.28-.5,.57-.63,.85-4.2-1.5-7.93-4.47-11.97-6.49,1.41-1.66,5.12-6.63,4.59-9.25,3.95,.83,7.87,1.85,11.96,2.48m-27.83,.02c1.95-2.29,2.56-1.03,4.4-1.8-.32,1.62-2.86,1.86-3.64,2.28-.25-.16-.51-.32-.76-.48m-13.55-9.77c.91,.01,2.24-1.18,2.54-1.87,.2-.83,4.17-1.15,5.41,.56-3.41-.1-3.28,2.22-6.43,2.61-.46-.37-1.01-.83-1.52-1.29m4.99-5.27l2.07-.38c.16,1.26,.42,2.11,1.15,2.9-.84-.63-3.16-2.46-3.22-2.53m-6.32,3.91c-.46-.54-.9-1.11-1.29-1.74,3-.58,2.59-2.31,6.16-1.76,.41,.35,.83,.8,1.46,1.28-4.76-.22-3.67,3.16-6.33,2.22m-2.21-3.52c-.33-.75-.59-1.54-.77-2.35,2.25,1.2,3.54-1.34,5.93-.4,.25,.66,.59,1.21,.93,1.66-3.45-.78-4.03,1.83-6.08,1.09m-1-6.4c1.97,1.59,4.49-1.06,5.73,1.35,.01,.62,.04,.86,.14,1.3-2.16-1.49-3.76,1.37-5.91-.23-.07-.8-.07-1.61,.03-2.42m12.01-3.75c-.12,.67-.23,1.28-.32,1.81-1.34,.11-2.84,.3-3.84,.43,.51-.6,1.64-1.41,4.16-2.24m-3.19-4.83c.71,2.34,2.68,1.26,2.3,3.78-.48,.17-1.06,.39-1.64,.66,.09-3.86-4.16-.81-4.13-3.71,1.03-.65,2.23-1.24,3.61-1.75-.19,.48-.17,.86-.14,1.01m-2.04,6.59c-.32,.45-.64,1.09-.8,1.66-1.62-1.8-4.04,.71-5.74-.9,.27-1.06,.73-2.1,1.39-3.09,1.72,2.25,3.68,.88,5.15,2.34m-.3-1.64c-1.77-.08-3.25,.06-3.73-2.1,.48-.51,1.02-.99,1.64-1.45,.17,3.85,4.28,.21,3.84,3.72-.17,.12-.41,.31-.68,.56-.27-.3-.61-.58-1.07-.73m5.57-3.38c-.94-.59-2.71-1.57-1.56-3.08,.87-.26,1.57-.54,2.57-.74-.12,.63-.58,4.5-.78,5.65,0,0,0,0-.01,0,.22-1.01,.04-1.54-.21-1.84m-12.86,4.73c-.15,.47-.26,.94-.35,1.41l-2.48,.36c.39-3.02,1.64-10.01,2.67-15.38l14.48-.43c-.18,1.12-.39,4.28-.47,4.29-9.4,1.84-12.72,6.31-13.85,9.74m16.94-26.39c3.77-1.11,8.6,4.79,10.16,7.47,.8,2.47-.9,4.29-3.05,4.29-2.41,.31-6.5-4.87-8.02-6.38-1.17-1.74-1.47-4.67,.91-5.37m13.14-3.83l-.06,5.85c0,.16-2.16,1.46-3.42,2.35-1.1-1.35-2.16-2.29-3.48-3.41,2.01-1.45,4.85-3.28,6.96-4.79m.13,7.86c0,4.25,0,8.13,.03,11.93-2.14,1.72-6.27,1.44-8.45,.77l.51-4.03c4.29,1.73,8.27-3.31,5.3-6.99-.18,.05,1.35-.92,2.62-1.69m-.09-25.21c-8.2,1.26-16.26,.39-23.56-3.17-.28,.18,9.18-14.49,9.42-14.9,2.87,2.32,10.04,3.34,14.25,3.61,.07,4.13-.3,11.65-.11,14.45m-25.08-3c-2.74,4.41-5.98,.77-4.32-1.66,1.75-2.56,11.22-18.19,11.22-18.19,.85-1.2,4.59,.88,3.96,2.62l-9.66,15.11s-.95,1.71-1.2,2.12m-5.35-2.16c-2.73-.86-15.66-13.48-14.01-16.11,.36-.37,1.44,.03,1.81,.51,2.41,3.14,4.52,5.93,7.51,8.63,1.57,1.85,7.19,4.64,4.68,6.97m-11.5-19.08c.79-.46,.8-.13,.95,.07,3.26,4.34,5.78,7.58,9.79,11.35,.34,.32,3.71,2.89,3.03,3.51-.59,1.02-1.71,.28-2.24-.08-2.46-2.01-13.54-11.54-11.53-14.85m2.05-3.5c.88-.18,1.47,1.2,1.82,1.72,4.75,7.14,5.84,7.68,11.5,13.24,.34,4.79-9.14-5.85-9.69-6.66-.21-.15-2.78-3.16-4.13-5.4-.6-.99-.41-2.12,.51-2.9m2.99-2.36c5.75,8.5,5.54,8.78,12.39,14.49,.75,.56-.6,1.98-1.67,1.24-1.41-.92-7.84-7.11-10.6-11.46-1.44-2.25-2.06-4-.12-4.27m1.81-3.78c.3-.1,.84-.39,1.45,.88,.74,1.53,3.51,6.36,6.03,9.31,1.16,1.36,2.98,3.66,4.12,4.62,1.05,.88,.82,1.14,.39,1.84-1.01,1.16-1.69,.01-2.37-.5-3.05-2.9-5.86-4.5-10.35-12.5-.83-1.48,.52-3.78,.72-3.65m3.92-3.16c.61-.3,.52,.03,1.13,1.89,1.86,5.15,7.27,12.56,8.96,13.73,.17,.55-.66,1.77-.99,1.75-4.04-2.29-8.73-9.85-9.23-10.67-.76-1.16-3.82-4.79,.13-6.7m3.4-3.19c1.15-.25,1.79,4.16,2.34,5.6,1.45,3.81,3.84,7.94,6.3,11.04-.51,5.9-15.71-15.66-8.63-16.64m181.46,90.71c-1.36-1.76-4.16-2.37-6.03-1.16-.31-1.46-2.31-11.52-2.79-15.34,11.78-1.38-7.17-19.6-7.73-7.53-3.46,.02-12.39-.47-14.53-.57,2.31-5.17-3.94-8.03-7.74-4.65-.87-.64-5.51-3.85-8.19-5.73,0-4.71,0-9.49,0-14.13,8.24,1.03,15.72,.2,23.4-3.49,2.61,4.43,7.64,2.1,6.78-2.01,4.51-3.76,11.93-10.19,14.41-15.54,.86-1.87-1.17-3.18-2.74-2.04,.68-1.23,.79-3.26-1.23-3.49,.4-1.37-.61-3.94-2.35-3.14,.34-1.28-1.13-2.97-2.4-2.48,.35-.69-.39-5.01-2.77-3.66,.06-1.43-1.86-3.95-3.59-3.14,.07-1.38-.31-3.09-2.63-3.35-1.36,0-1.88,2.05-2.49,4.43-1.18,4.46-3.8,8.74-6.59,12.43-2.73-1.38-7.33,2.49-5.12,5.01-2.06,1.82-7.44,3.18-12.69,3.55,0-8.75-.02-13.37,.02-16.25h-26.49c3.75-2.7,16.26-11.71,19.85-14.18,.11,.19,2.28,3.21,3.36,4.61,.99-.69,2.86-1.94,3.58-2.47,.48,.66,1.15,1.64,1.82,2.63-.71,.5-2.85,2.01-3.53,2.48,1.02,1.41,5.58,7.73,6.6,9.14,1.18-.83,3.17-2.23,4.35-3.06-.47-.66-2.78-3.85-3.3-4.57l2.92-2.06c.54,.74,2.81,3.89,3.3,4.57,1.36-.96,4.91-3.45,6.27-4.41-1.02-1.42-3.71-5.25-5.24-7.22-.65,.45-2.71,1.91-3.39,2.39l-2.37-3.28c1.24-.89,2.32-1.64,3.44-2.37-.48-.66-1.92-2.67-2.43-3.36,1.41-.99,2.64-1.86,3.46-2.43,.69,1.04,1.66,2.28,2.54,3.24,1.14-.81,3.06-2.16,3.64-2.57,.6,.84,1.49,2.08,2.36,3.28-.72,.51-3.05,2.15-3.74,2.63,1.01,1.39,4.22,5.84,5.22,7.23,1.38-.97,5.2-3.67,6.58-4.64-.47-.65-2.76-3.86-3.28-4.58l2.4-1.69c.59,.79,2.89,3.89,3.44,4.62l4.52-3.26c-1.05-1.45-5.58-7.74-6.64-9.2-.67,.47-3.45,2.43-4.17,2.93l-1.89-2.61c.74-.52,3.48-2.45,4.17-2.93-.47-.66-2.8-3.88-3.32-4.61,.68-.5,1.93-1.09,1.61-2.15-.19-.85-3.02-4.46-3.86-4.73-.53-.22-1.08,.14-1.09,.17l-49.33,34.82c-.35-2.01-1.19-7.08-1.74-10.52h10.73c.78,0,1.42-.63,1.42-1.4,.19-1.24-.68-2.12-1.94-1.93v-1c2.09-.16,2.09-3.36,0-3.51v-8.6c-.27,.48-.9,1.59-1.19,2.1-.11-1.26-.38-2.78-.71-3.92,2.19,.45,2.58-3.27,.41-3.33-.4,0-1.85,0-2.22,0v-.81c2.33,.03,2.33-3.58,0-3.55v-6.81c-.74,1.23-1.28,2.35-2.05,3.79-.46-2.05-1.17-3.99-2.12-5.8,.99-.06,1.43-1.03,1.3-1.91,.03-1.67-2.06-1.41-3.19-1.4h-.01c1.94-.16,2.11-3.1,.2-3.47-.01-.15-.02-6.04-.02-6.04-.65,1.15-1.22,2.25-1.9,3.53-1.97-3.97-9.94-11.53-17.38-12.83-.12-1.81-1.18-3.12-1.92-3.35V7.12h3.07V3.33h-3.07V0h-4.64V3.33h-3.07v3.79h3.07v4.8c-.71,.28-1.69,1.36-1.9,3.24-6.16,1.17-12.44,5.73-17.36,13.01-.66-1.23-1.13-2.19-1.77-3.26v5.65c-2.03,.23-1.98,3.33,.05,3.51h-1.54c-.46,0-1.66,.29-1.7,1.4-.13,.9,.34,1.89,1.36,1.92-.21,.52-1.58,3.72-2.16,5.81-.78-1.46-1.32-2.57-2.06-3.81v6.84c-2.7-.44-2.7,3.93,0,3.49v.84c-.36,0-1.83,0-2.23,0-2.17,.06-1.78,3.78,.41,3.33-.33,1.16-.6,2.68-.71,3.96-.23-.47-.94-1.69-1.19-2.14v8.6c-2.6-.34-2.6,3.85,0,3.51v1c-1.26-.19-2.13,.69-1.94,1.93,0,.77,.64,1.4,1.42,1.4h10.54c-.47,3.33-1.24,8.45-1.6,10.52l-49.33-34.82s-.57-.39-1.1-.17c-.85,.27-3.67,3.88-3.86,4.73-.32,1.06,.92,1.65,1.61,2.15-.54,.74-2.84,3.93-3.32,4.61,.67,.47,3.45,2.43,4.17,2.93l-1.89,2.61c-.74-.52-3.48-2.45-4.17-2.93-1.05,1.46-5.59,7.74-6.64,9.2l4.52,3.26c.53-.71,2.86-3.85,3.44-4.62l2.39,1.69c-.53,.74-2.8,3.91-3.28,4.58,1.38,.97,5.2,3.67,6.58,4.64,1-1.39,4.22-5.84,5.22-7.23-.67-.47-3.03-2.13-3.73-2.63,.87-1.2,1.76-2.44,2.36-3.28,.58,.41,2.51,1.77,3.64,2.57,.88-.96,1.86-2.2,2.54-3.24,.82,.58,2.05,1.44,3.46,2.43-.51,.71-1.94,2.69-2.43,3.36,1.11,.74,2.19,1.48,3.44,2.37l-2.37,3.28c-.69-.48-2.73-1.92-3.38-2.39-1.54,1.98-4.22,5.8-5.24,7.22,1.36,.96,4.9,3.46,6.26,4.41,.47-.66,2.78-3.85,3.3-4.57l2.92,2.06c-.54,.74-2.81,3.89-3.3,4.57,1.18,.83,3.17,2.24,4.35,3.06,1.02-1.41,5.58-7.72,6.6-9.14-.66-.47-2.83-1.99-3.53-2.48,.67-.99,1.07-1.57,1.54-2.23,.73,.53,2.54,1.71,3.53,2.4,1.09-1.42,3.57-4.73,3.69-4.94l19.6,13.77c.09,.07,.44,.29,.49,.41h-26.73c.03,2.87,.02,7.46,.02,16.14-5.36-.34-11.51-1.6-13.58-3.43,2.21-2.52-2.39-6.4-5.12-5.01-2.79-3.69-5.41-7.96-6.59-12.43-.6-2.38-1.12-4.43-2.49-4.43-2.32,.26-2.69,1.97-2.62,3.35-1.74-.81-3.65,1.7-3.59,3.14-2.38-1.36-3.11,2.97-2.77,3.66-1.28-.48-2.74,1.2-2.4,2.48-1.74-.8-2.75,1.77-2.35,3.14-2.03,.23-1.91,2.26-1.23,3.49-1.57-1.14-3.61,.16-2.74,2.04,2.49,5.37,9.89,11.78,14.41,15.54-.86,4.12,4.17,6.45,6.78,2.01,7.96,3.83,15.72,4.57,24.29,3.34,0,4.68,0,9.51,0,14.27-2.68,1.88-7.33,5.1-8.2,5.74-3.8-3.38-10.05-.52-7.74,4.65-2.14,.1-11.06,.59-14.52,.57-.56-12.07-19.51,6.15-7.73,7.53-.48,3.82-2.48,13.89-2.79,15.34-3.11-2.04-7.84,1.09-6.89,4.74,.73,2.98,7.17,9.38,10.42,9.38,2.65,.13,5.28-3.28,4.05-5.8,.81-.26,3.5-.71,3.63-.73,6.15,10.46,29.48,21.49,40.18,28.15,.84,.33,2.24,.63,2.71-.4,1.17-1.43,3.63-3.25,1.99-5.27,1.18-.6,1.95-2.37,1.45-3.38,1.51-.76,1.59-1.93,.83-3.33,.56-.42,1.26-1.45,.55-2.16-.31-.37-.66-.87-1.19-.92-2.76-.43-5.49-1.05-8.13-1.65-4.65-1.06-9.45-2.15-14.52-2.23-.81-.37-1.88-.99-3.15-1.82v-.02c-1.99-1.24-4.2-2.91-6.92-5.01,5.25,2.39,14.81-10.03,6.3-11.21l.29-1.82c2.18,1.3,7.54,.81,10.35-.48,5.82,19.38,16.27,22.19,52.35,40.51,36.16-18.39,46.44-21.03,52.35-40.5,2.79,1.29,8.17,1.77,10.34,.48l.29,1.82c-8.51,1.18,1.04,13.6,6.3,11.21-2.72,2.1-4.92,3.76-6.92,5.01v.02c-1.26,.83-2.33,1.45-3.14,1.82-5.07,.08-9.87,1.17-14.52,2.23-2.64,.6-5.38,1.22-8.13,1.65-.53,.05-.89,.55-1.19,.92-.71,.71-.02,1.74,.55,2.16-.76,1.41-.68,2.58,.83,3.33-.5,1.01,.27,2.78,1.45,3.38-1.63,2.02,.8,3.84,1.99,5.27,.47,1.03,1.87,.74,2.71,.4,10.69-6.66,34.03-17.68,40.18-28.15,.13,.03,2.83,.47,3.63,.73-1.26,2.59,1.51,6.06,4.24,5.79,3.96-.83,13.14-8.35,9.36-12.96"/><path class="cls-2" d="M557.77,197.33c-2.6-.65-5.14-1.6-7.53-2.82-1.31-.12-3.31-.36-4.62-.56,0,0,.02,0,.03-.01-.43-.07-1.39-.22-1.56-.25h0c-.31-.06-1.39-.25-1.71-.31,.4,.33,.83,.63,1.26,.92,0,0,.52,.36,.78,.49,1.46,.86,3.05,1.56,4.62,2.24,.14,.06,.28,.12,.43,.18,2.58,1.13,6,2.42,9.55,2.47,3.19,.04,5.54-.28,7.63-1.06,.23-.09,.46-.18,.69-.27-.34,0-.68,.02-1.02,.02-2.89,0-5.75-.35-8.55-1.04"/><path class="cls-2" d="M565.91,195.16c-2.4,0-4.62-.41-6.2-.7l-.17-.03c-1.3,.21-2.81,.32-4.53,.32-1.05,0-2.18-.04-3.38-.12,2.01,.94,4.11,1.68,6.26,2.22,3.51,.87,7.14,1.19,10.79,.95,1.77-.81,3.42-1.79,4.94-2.91,.75-.55,1.46-1.12,2.07-1.79-2.54,1.05-5.21,1.72-7.95,1.99-.61,.06-1.23,.09-1.83,.09"/><path class="cls-2" d="M575.12,187.82c-.11,.08-.5,.37-1.07,.76-.67,.46-1.43,.98-2.24,1.38-.04,.02-.08,.04-.12,.06,.82-.27,1.63-.57,2.42-.92,.56-.24,1.1-.51,1.64-.79,.62-.32,1.23-.67,1.82-1.04,0-.1,0-.2-.02-.29-.03-.37-.11-.68-.21-.94-.02-.06-.05-.11-.07-.16-.03,.03-.06,.06-.09,.08l-.26,.24c-.12,.12-.25,.23-.37,.35-.45,.43-.91,.87-1.43,1.26"/><path class="cls-2" d="M552.84,186.58c-.17-.06-.33-.12-.49-.18,0,.09-.01,.23-.03,.39-.07,.68-.23,1.52-.48,2.11-.05,.11-.1,.23-.16,.35-.13,.33-.28,.64-.47,.93,.24,.07,.49,.15,.73,.22,.22,.07,.43,.13,.65,.19-.07-1.17,.26-2.56,.82-3.82-.19-.06-.38-.12-.58-.19"/><path class="cls-2" d="M544.59,183.19s-1.18,.12-1.73,.26c-1.02,.26-1.98,.83-2.24,.99,.14,.26,.32,.54,.54,.83,.46,.61,.96,1.04,1.37,1.34,.04-.22,.12-.55,.28-.92,.13-.3,.48-.93,.94-1.54,.07-.09,.13-.18,.2-.26,.1-.14,.18-.24,.22-.29,.13-.15,.27-.29,.4-.41,0,0,0,0,0,0,0,0,0,0,0,0"/><path class="cls-2" d="M575.03,184.66c-.39,.02-.68,.05-.98,.12-.14,.03-.26,.07-.34,.09,0,0,0,0,0,.01,.26,.26,.51,.92,.54,.98,.01,.03,.25,.57,.32,1.19,.39-.27,.72-.51,.96-.71,.31-.25,.5-.41,1.03-.88,.22-.2,.28-.26,.4-.36-.25-.21-.44-.32-.86-.4-.3-.05-.62-.07-1.07-.05"/><path class="cls-2" d="M534.48,165.53s.06-1.75,.56-2.02c.12-.06,.24-.05,.36,.03,.17,.12,.39,.47,.38,.68,0,.11-.01,.23-.02,.38-.04,.61-.1,1.54-.02,2.76,.31,4.74,1.65,10.03,3.78,14.89,.04,.09,.07,.16,.09,.22,.2,.35,.45,.86,.58,1.14,.13-.09,.3-.22,.42-.28,.16-.09,.57-.27,.8-.37-1.57-3.52-2.38-9.6-2.58-12.36-.38-5.02-.14-5.26-.03-5.37,.21-.21,.38-.2,.5-.15,.43,.17,.55,1.19,.6,2.68,.1,3.07,.27,5.16,.56,6.99,.36,2.31,1.85,6.92,2.15,7.82,1.31-.35,1.89-.33,2.25-.31,.02,0,.05,0,.07,0l-.04-.19c-.66-3-1.9-8.6-1.56-11.53,.02-.15,.03-.31,.04-.47,.05-.59,.08-1.02,.34-1.12,.11-.04,.23-.02,.35,.07,.23,.18,.44,.65,.34,1.45-.26,2.2,.98,8.58,1.75,11.59,.07-.03,.13-.06,.25-.13,.2-.13,.88-.61,1.21-1.37,.11-.25,.11-.37,.11-.77,0-.12,0-.27,0-.45-.03-.43-.03-.86,0-1.34,0-.91,.69-1.95,1.04-2.27,.12-.11,.28-.23,.41-.31-.46-1.76-.93-3.78-.99-5.76-.51,.5-1.27,1.21-1.49,1.26-.39,.09-.75-.15-.98-.35-.81-.68-1.46-1.55-1.87-2.52-.24,.17-.55,.27-.87,.27-.42-.01-.81-.15-1.08-.43-.26-.27-.39-.61-.5-.91-.18-.51-.3-1.03-.41-1.54-.09-.41-.18-.83-.31-1.23-.09,.04-.2,.1-.29,.15-.68,.36-.94,.48-1.11,.41-.22-.09-.38-.46-.53-.86l-.04-.11c-.14-.35-.28-.99-.41-1.61-.06-.29-.12-.57-.18-.79-1.58,1.52-2.77,1.98-3.49,2.1-.02,0-1.7,.25-1.92-.07-.05-.07-.05-.15,0-.23,.23-.38,.37-.66,.46-.86-.54,.43-1.45,.88-2.97,.4-.23-.07-.39-.14-.49-.22-.21,.18-.58,.49-.89,.58-.85,.26-1.38,.24-1.63-.07-.15-.19-.16-.43-.11-.66l-.74,.58c.34,2.78,.86,5.54,1.53,8.22,.74,2.95,1.47,5.03,1.84,6.01,.43,1.15,1.03,2.73,2.09,4.67,.65,1.19,1.39,2.36,2.18,3.46,.28-.55,.86-1.7,1.01-2-.42-.86-4.13-8.71-4.39-16.94-.06-.88-.13-2.98,.41-3.21,.03-.02,.08-.03,.13-.03,.1,0,.22,.04,.35,.19l.03,.05c.13,.29,.13,.46,.14,.89,0,.73,.02,2.25,.67,6.59,.48,3.19,1.58,6.85,3.46,11.5,.12,.33,.54,1.38,1,2.09,.11,.17,.65,.99,1.16,1.44,.36-.59,.74-1.14,1.22-1.55-1.06-1.96-4.48-9.06-4.66-18.77"/><path class="cls-2" d="M589.87,162.37c.01,.14-.01,.28-.1,.41-.23,.31-.76,.38-1.64,.19-.31-.07-.81-.37-1.12-.58-.03,.08-.09,.19-.2,.29-.3,.29-1.2,.41-2.12,.11-.33-.11-.65-.27-.93-.47,.11,.22,.26,.5,.48,.86,.04,.07,.04,.16,0,.23-.22,.32-1.9,.08-1.92,.07-1.58-.26-2.91-1.49-3.54-2.09-.04-.04-.08-.07-.12-.11-.05,.68-.23,1.82-.42,2.48,0,0-.25,.86-.58,.99-.17,.06-.42-.05-1.11-.41-.1-.05-.21-.11-.29-.15-.13,.4-.22,.82-.31,1.23-.11,.51-.23,1.04-.41,1.54-.11,.3-.24,.65-.5,.91-.26,.27-.65,.43-1.06,.43h-.01c-.32,0-.63-.1-.87-.27-.41,.97-1.06,1.84-1.87,2.52-.23,.2-.59,.45-.98,.35-.22-.05-.98-.76-1.49-1.26,0,.72-.03,1.3-.13,1.86-.33,1.85-.67,2.97-.94,3.73,.15,.1,.25,.18,.25,.18,.16,.13,.27,.27,.32,.34,.12,.14,.45,.65,.61,1.02,.23,.58,.36,1.18,.4,1.97,.02,.44,.02,.74,.02,.95,0,.4,0,.51,.11,.77,.18,.41,.44,.7,.7,.93l.24-.82c.95-3.29,2.38-8.27,2.21-10.11-.08-.82,.13-1.29,.36-1.46,.11-.08,.23-.1,.33-.06,.21,.08,.36,.38,.38,1.6,.04,2.04-1.42,7.27-2.29,10.4-.11,.4-.21,.76-.3,1.08,.09,.04,.22,.1,.37,.19,.33,.19,.95,.53,1.53,1.2,.13,.15,.27,.35,.39,.53h0s.12,0,.12,0c1.03-1.96,2.76-7.85,3.04-9.2,.36-1.77,.45-3.91,.56-6.99,.05-1.49,.17-2.51,.61-2.68,.11-.05,.28-.05,.49,.15,.12,.11,.35,.35-.03,5.37l-.04,.54c-.17,2.43-.36,5.18-3.4,12.7,.17,0,.33,0,.47,0,.75,0,1.33,.06,1.76,.18,1.9-5.41,4.01-12.57,4.28-16.64,.08-1.22,.02-2.15-.02-2.76,0-.15-.02-.27-.02-.38,0-.22,.21-.57,.38-.69,.12-.08,.25-.09,.36-.03,.5,.27,.56,2,.56,2.02-.12,6.45-2.31,12.65-3.9,17.18-.24,.67-.46,1.3-.66,1.89,.09,.1,.14,.17,.14,.17,.04,.06,.09,.13,.13,.2,.54-.27,1.39-.79,1.87-1.2,.66-.55,.99-1.16,1.22-1.63,2.33-4.95,3.37-11.25,3.38-11.31,.35-2.18,.65-5.5,.66-6.11,0-.19,0-.35,0-.48,0-.43,0-.6,.14-.89l.03-.05c.2-.21,.38-.2,.48-.16,.54,.23,.47,2.33,.41,3.22-.26,8.23-3.98,16.1-4.39,16.94,.07,.13,.22,.3,.36,.47,.09,.11,.19,.22,.27,.34,.17,.22,.35,.45,.46,.59,.59-.54,1.86-2.43,2.1-2.86,.98-1.69,1.52-3.14,1.95-4.29l.14-.38c.37-.98,1.11-3.07,1.84-6.01,.38-1.53,1.09-4.66,1.57-8.44-.18-.04-.35-.11-.51-.19-.09-.04-.18-.1-.27-.15"/><path class="cls-2" d="M540.92,189.56c.51,.2,1.73,.54,2.26,.68,1.11,.28,2.23,.49,3.36,.67,.08,.01,.16,.03,.24,.04,.22,.03,.43,.06,.65,.09,.22,.03,.43,.06,.65,.09,.39,.05,.78,.1,1.17,.14,1.33,.15,2.67,.26,4.01,.33-.81-.2-1.65-.41-2.57-.66-.01,.01-.09,0-.22-.06-.2-.05-.41-.11-.63-.17-.03,0-.06-.02-.08-.02-.12-.03-.23-.07-.36-.1-.02,0-.05-.02-.07-.02-.21-.06-.43-.13-.66-.2-.09-.03-.18-.06-.28-.09-.08-.03-.17-.05-.26-.08-.11-.03-.22-.07-.33-.11-.09-.03-.17-.06-.26-.09-.12-.04-.25-.08-.37-.13-.08-.03-.17-.06-.25-.09-.14-.05-.29-.1-.44-.16-.07-.03-.15-.05-.22-.08-.22-.08-.45-.17-.68-.26-.04-.02-.07-.03-.11-.05-.02,0-.04-.02-.06-.02,0,0,0,0,0,0l-.1-.04s0,0,0,0c-.03-.01-.05-.02-.08-.03-.07-.03-.15-.06-.22-.09-.6-.25-1.24-.54-1.89-.91-.31-.15-.54-.31-.75-.47-.24-.16-.48-.33-.72-.52-.14-.11-.28-.23-.4-.34-.15-.13-.29-.26-.41-.4-.39-.4-.69-.8-.92-1.24-.12,.32-.23,.65-.34,.98-.22,.67-.4,1.35-.43,2.06,0,.1-.05,.28,0,.36,.18,.24,1.42,.83,1.79,.97"/><path class="cls-2" d="M563.22,192.76c.12-.06,.23-.13,.35-.19-1,.09-3.09,.18-6.13-.2-.42-.05-.82-.11-1.21-.17-.03,0-.07,0-.1,0-2.08-.02-4.29-.14-6.43-.36-.48-.03-.65-.07-1.08-.12-.23-.03-.45-.06-.68-.09-1.04-.14-2.09-.3-3.12-.51-.52-.1-1.06-.22-1.59-.34h0c-.77-.19-2.23-.62-2.94-.94-.21-.1-.68-.32-1.15-.62,.04,.22,.1,.44,.19,.65,.01,.03,.03,.06,.05,.1,.17,.37,.39,.72,.5,.88,.21,.32,.33,.51,.55,.76,.04,.05,.23,.27,.51,.53,.26,.24,.5,.43,.7,.56,.45,.09,1.48,.3,2.01,.4h0c.56,.1,2.09,.33,2.8,.45,0,0,0,0,.01,0,1.07,.14,2.82,.37,3.89,.46,3.73,.32,6.82,.29,9.17-.1,1.01-.17,1.79-.38,2.43-.61,.52-.18,.94-.37,1.29-.54"/><path class="cls-2" d="M574.33,189.57c-1.68,.74-3.44,1.3-5.25,1.68,0,0-.02,0-.02,0-.28,.12-.56,.23-.85,.33h.02s-.12,.04-.12,.04c-.36,.13-.72,.24-1.08,.35-.2,.06-.39,.12-.59,.16-.6,.14-1.13,.23-1.59,.3-.45,.28-.91,.55-1.39,.78-.09,.05-.19,.09-.29,.14-.56,.26-1.28,.55-2.27,.79,1.87,.33,4.31,.66,6.79,.41,3-.29,5.9-1.08,8.65-2.32,.3-.46,.56-.96,.74-1.54,.23-.74,.45-1.83,.49-2.83-.6,.37-1.22,.71-1.85,1.03-.46,.24-.93,.46-1.4,.67"/><path class="cls-2" d="M564.3,191.62c.57-.07,1.19-.16,1.92-.33,.15-.03,.3-.08,.46-.12-.4-.39-.78-.94-1.42-2.06-.33-.58-.49-1.29-.56-2-.12,.04-.29,.12-.56,.16-.05,0-.14,.02-.22,.03,.24,.58,.42,1.22,.5,1.94,.08,.73,0,1.43-.09,2.1-.01,.09-.02,.18-.03,.27"/><path class="cls-2" d="M538.11,159.86c.13-.17,.14-.2,.2-.5,.03-.18,.08-.45,.19-.88,.73-2.93,2.21-4.65,2.86-5.29-1.48-.33-1.99-1.46-1.97-2.57-.1,.09-.21,.18-.27,.24-1.29,1.16-2.45,4.61-2.94,6.46h0c-.26,1.19-.77,2.2-1.41,3.48-.25,.5-.53,1.06-.83,1.7,.63-.07,2.62-.7,4.17-2.63"/><path class="cls-2" d="M542.05,164.69l.07,.26c.37,1.25,.37,1.25,.37,1.29,.09,.52,.33,.77,.53,.82,.08-.02,.48-.37,.86-1.11h0c.36-.65,2.95-5.76,3.55-7.14-.31-.1-.61-.22-1-.42-.45-.23-.79-.46-1.14-.71-.07-.05-.14-.1-.21-.14-.35,.71-.71,1.41-1.1,2.1-.68,1.22-1.43,2.42-2.23,3.56-.02,.03-.04,.06-.07,.1l.36,1.34-.15,.09,.17-.05Z"/><path class="cls-2" d="M546.32,169.66c.25-.05,1.19-.89,1.6-1.44,.22-1.41,.84-4.23,1.51-5.89,.35-.86,.79-1.73,1.13-2.36l-.05-.02c-.34-.1-.72-.21-1.06-.35-.2-.08-.36-.13-.5-.18-.17-.05-.31-.1-.49-.18-.34,.72-1.46,3.19-1.79,3.99-.13,.31-.56,1.19-.99,2.05-.39,.79-.79,1.61-.93,1.93h0c.29,.96,.81,1.77,1.56,2.43"/><path class="cls-2" d="M539.72,163.5c.12-.06,.4-.31,.51-.41,.06-.06,.12-.1,.15-.13,.31-.25,.58-.61,.84-.97,.06-.09,.12-.17,.18-.25,.73-.98,1.33-2.07,1.9-3.12l.32-.57c.06-.11,.13-.22,.18-.33,.02-.04,.1-.18,.56-.94-.55-.61-1.65-2.37-1.96-3.22-.3,.1-.6,.52-.79,.79l-.08,.11c-.35,.48-.7,1.03-1.06,1.67-.54,.96-.83,2.02-1.02,2.83l-.05,.2c-.19,.82-.31,1.32-.18,2.18,.2,1.27,.39,2,.5,2.18"/><path class="cls-2" d="M531.7,161.82c.54-.13,1.56-.59,2.34-2.19l.05-.1c.22-.45,.52-1.08,.98-2.34,.24-.65,.43-1.22,.6-1.75,.37-1.11,.69-2.07,1.27-3.23,.15-.29,.33-.64,.6-1.05,.4-.6,.87-1.16,1.41-1.66-1.23-.29-1.75-1.2-1.9-1.73-.09,.1-.18,.2-.23,.27-.66,.81-2.87,3.71-3.57,6.79-.09,.46-.27,1.28-.43,2-.13,.57-.25,1.09-.29,1.33-.22,1.11-.47,2.09-1.56,3.7,.13,.03,.39,.05,.74-.03"/><path class="cls-2" d="M533.13,151.67c1.01-2.29,3.11-4.91,3.57-5.47-.13-.17-.39-.48-.5-.66-.15-.23-.22-.52-.27-.75-.01-.06-.03-.12-.04-.18-.55,.47-2.62,3.39-3.76,5.67-1.26,2.54-2.18,6.41-2.51,7.95-.1,.47-.39,1.72-.49,1.99-.17,.48-.46,1.08-.68,1.51-.05,.11-.1,.22-.15,.31,1.72-.41,2.75-1.72,3.07-3.89,.07-.48,.61-3,.73-3.53,.19-1.01,.55-1.87,1.03-2.97"/><path class="cls-2" d="M578.51,159.5c.06,.3,.07,.36,.21,.54,1.7,2.13,3.89,2.67,4.36,2.67h.02c-.32-.69-.62-1.29-.88-1.83-.64-1.28-1.14-2.29-1.4-3.46h0c-.13-.52-1.36-5.07-2.97-6.51-.09-.08-.28-.25-.42-.37,.05,.75-.08,2.37-2.06,2.72,.56,.53,2.18,2.26,2.95,5.36,.11,.43,.16,.7,.19,.88"/><path class="cls-2" d="M585.45,162.08c.33,.04,.55-.02,.62-.05-1.13-1.65-1.39-2.64-1.61-3.76-.05-.24-.17-.77-.29-1.33-.16-.72-.35-1.54-.44-2-.71-3.1-2.92-6.01-3.59-6.83-.08-.1-.21-.25-.35-.38-.08,.47-.58,1.59-2.03,1.85,.58,.52,1.09,1.11,1.52,1.76,.27,.41,.45,.76,.6,1.04,.58,1.16,.9,2.11,1.26,3.22,.18,.54,.36,1.1,.6,1.75,.46,1.26,.76,1.89,.99,2.35l.05,.1c.92,1.89,2.17,2.23,2.67,2.29"/><path class="cls-2" d="M588.85,162.2c.06,0,.13,0,.19-.01h.01c-.03-.16-.27-.72-1.09-2.01-.15-.23-.58-1.47-.69-2.01-.33-1.55-1.25-5.42-2.52-7.97-.76-1.53-1.89-3.56-3.86-5.67-.07,.46-.16,.78-.26,.94-.23,.36-.45,.51-.58,.6-.03,.02-.07,.05-.08,.06,.3,.36,2.56,3.12,3.61,5.52,.48,1.09,.84,1.95,1.03,2.96,.04,.17,.11,.55,.19,.98,.18,.94,.41,2.22,.53,2.52,1.01,2.65,2.25,4.09,3.51,4.09"/><path class="cls-2" d="M575.78,162.41c.37,.47,.8,.89,1.29,1.24,.05,.03,.09,.06,.13,.06h0s.05-.03,.09-.12v-.02c.15-.32,.22-.68,.29-1.03l.02-.13c.06-.29,.11-.61,.17-.96,.13-.88,.01-1.41-.18-2.21l-.05-.2c-.19-.82-.48-1.88-1.03-2.85-.37-.65-.71-1.19-1.07-1.68l-.08-.11c-.21-.3-.56-.79-.92-.84-.28,.87-1.26,2.65-2.01,3.32,.57,.94,.58,.97,.58,.99,.05,.11,.12,.22,.18,.34,.03,.05,.06,.1,.09,.15l.23,.42c.37,.68,.76,1.39,1.18,2.06,.21,.33,.39,.6,.56,.84,.06,.08,.12,.17,.18,.26,.11,.15,.22,.31,.33,.46"/><path class="cls-2" d="M573.94,167.08s.02,0,.03,0c.43-.12,.51-.31,.68-.76,.15-.41,.28-.82,.39-1.23,.01-.04,.02-.08,.03-.12,.08-.31,.14-.62,.2-.92,.01-.05,.02-.1,.03-.15,.03-.12,.1-.38,.05-.44l-.03-.04s-.07-.1-.1-.13c-.79-1.14-1.54-2.34-2.22-3.55-.4-.72-.79-1.45-1.14-2.19-.1,.07-.2,.13-.29,.2-.35,.25-.69,.48-1.14,.7-.41,.21-.73,.34-1.08,.44,.52,1.24,3.22,6.58,3.59,7.23,.35,.68,.84,.98,1,.98"/><path class="cls-2" d="M568.48,159.26c-.45,.22-1.57,.57-2.27,.78,.35,.63,.82,1.54,1.18,2.45,.78,1.96,1.21,3.79,1.28,5.45,.44,.59,1.68,1.82,1.89,1.78,1.39-1.44,1.58-2.09,1.66-2.34,0-.01,0-.02,0-.03-.13-.3-.54-1.15-.94-1.96-.42-.86-.86-1.74-.98-2.05-.35-.83-1.54-3.47-1.83-4.08"/><path class="cls-2" d="M589.07,153.4c-.12-.34-.24-.68-.36-1.03-.02-.05-.05-.13-.09-.22-.04-.09-.08-.21-.13-.33-1.81-4.78-4.62-8.17-5.01-8.55-.35,.12-.72,.2-1.09,.23-.36,.03-.72,.02-1.07-.03,.14,.19,.34,.46,.58,.77,1.16,1.53,3.09,4.1,3.64,5.33,.7,1.57,1.47,3.48,2.45,7.84,.47,2.09,1.7,3.88,2.81,4.09,.03-.12,.03-.57-.2-2.15-.42-2.89-.98-4.45-1.51-5.96"/><path class="cls-2" d="M558.41,150.24c-.36-.5-1.04-.56-1.16-.57-1.1-.11-1.92,.84-2.19,1.15-.18,.21-.43,.55-.6,1.01-.22,.56-.22,1.04-.22,1.29,0,3.86,.27,5.54,.27,5.54,.1,.63,.36,2.08,.91,3.88,0,0,.56,2.08,1.79,3.68,.28,.37,1.01,1.05,1.31,.91-.63-1.42-.97-2.58-1.04-2.75-.15-.36-.87-2.65-.99-4.55-.19-2.92,.26-6.29-.04-8.69,.03-.03,.07-.07,.13-.06,.35,0,.44,1.13,.47,1.91,.08,1.74,0,3.07-.07,3.82-.16,1.93-.08,2.69,.05,3.65,.37,2.6,1.76,6.44,1.88,6.52,.05,.03,.06-.36,.1-.74,0,0-.03-.67-.03-.89,0-2.1-.26-5.26-.26-5.26,0-2.42-.09-4.01-.05-6.41,0-.57-.01-3.08-.26-3.42"/><path class="cls-2" d="M528.73,157.45c.98-4.37,1.78-6.35,2.45-7.86,.55-1.24,2.44-3.75,3.56-5.25,.2-.27,.38-.5,.51-.68l-1.9-.25c-.43,.45-3.21,3.85-4.97,8.5-.05,.12-.09,.23-.13,.33-.04,.09-.07,.17-.09,.22-.12,.35-.24,.69-.36,1.03-.54,1.5-1.09,3.06-1.51,5.94-.19,1.32-.22,1.83-.21,2.03,1.05-.29,2.2-2,2.65-4.01"/><path class="cls-2" d="M559.46,179.74c.06,.15,.15,.26,.23,.33,.03,.03,.06,.05,.07,.06,.04,.02,.05,.08,.03,.12-.02,.03-.05,.04-.08,.04-.02,0-.03,0-.05-.01-.08-.05-.28-.23-.37-.48-.12-.31-.19-.66,.07-1.09,.02-.02,.03-.03,.06-.04,.07-.08,.18-.1,.27-.04,.2,.13,.5,.32,.55,.62,.03,.16-.02,.31-.15,.46-.03,.04-.08,.07-.13,.07-.02,0-.03,0-.04,0-.12-.01-.22-.04-.3-.07-.09-.03-.16-.08-.21-.12,.02,.05,.03,.1,.05,.14m-2.06-.02c-.1,.25-.29,.43-.37,.48-.02,0-.03,.01-.05,.01-.03,0-.06-.02-.07-.04-.03-.04-.01-.1,.03-.12,.02,0,.04-.03,.07-.06,.07-.07,.17-.18,.23-.33,.02-.05,.03-.1,.05-.14-.05,.05-.12,.09-.21,.13-.08,.03-.18,.06-.3,.07-.02,0-.03,0-.05,0-.05,0-.1-.03-.13-.07-.12-.15-.17-.31-.15-.46,.05-.3,.35-.49,.55-.62,.09-.05,.2-.03,.27,.05,.02,0,.05,.02,.06,.04,.26,.42,.19,.77,.07,1.09m6.14,9.75c-.2-1.88-1.17-3.18-2.24-4.44-.21-.25-.37-.46-.51-.67-.62-.95-.92-1.97-.83-2.86,.04-.4,.16-.76,.26-1.08,.25-.76,.23-.99,.22-1.18v-.07c-.03-.53-.23-.93-.3-1.08-.1-.22-.22-.41-.35-.58-.08-.1-.13-.08-.28-.03-.06,.02-.12,.04-.19,.05-.34,.07-.68,.08-1.03,.04-.06,0-.16-.02-.26-.03-.18-.02-.38-.05-.49-.06h-.01c-.17,0-.47,.41-.57,.54-.03,.04-.05,.07-.06,.08-.09,.11-.17,.26-.24,.41-.03,.07-.07,.13-.1,.19-.36,.67-.28,1.34-.13,1.96,.06,.25,.13,.54,.17,.86,.02,.13,.03,.25,.05,.37,.14,1.04,.25,1.79-.82,2.74-1.52,1.35-2.18,3.05-2.4,6.26,.94,.21,1.96,.39,3.04,.54,.49-.61,.8-2.25,.47-3.68,0-.02-.25-1.48,.01-1.56,.12-.04,.2,.13,.24,.22,.75,1.69,.84,3.56,.26,5.14h.04s.84,.11,1.96,.18c.03,0,.07,0,.11,0-.56-1.64-.4-3.54,.44-5.24,.04-.09,.12-.26,.25-.21,.26,.1-.05,1.55-.05,1.56-.39,1.45-.32,2.41,.3,3.93,1.13,.05,2.12,.03,2.92-.04v-.02c.02-.12,.03-.23,.04-.35,.08-.66,.15-1.28,.09-1.92"/><path class="cls-2" d="M554.09,147.88s.34,.26,.65,.27c.04,0,.08,0,.08,0,.03,0,.05-.02,.08-.02-.73-.5-1.3-1.38-1.26-2.28,.03-.55,.44-.94,.7-1.4,.12-.21,.21-.43,.22-.69,0-.15-.12-.23-.24-.23-.11,0-.22,.07-.22,.21,0,.21-.08,.39-.18,.56-.11,.18-.24,.34-.36,.51-.27,.4-.4,.83-.36,1.31,0,.08,.02,.16,.03,.23,.07,.4,.21,.7,.31,.88,.22,.37,.46,.58,.56,.65"/><path class="cls-2" d="M552.19,175.21c.27,.1,.51,.23,.71,.4,.4-.58,1.85-2.68,2.09-3.15-.76,.58-2.11,2.07-2.81,2.75"/><path class="cls-2" d="M553.45,176.55c.33-.22,2.25-3.28,2.25-3.28-.6,.39-2.04,1.81-2.65,2.49,.09,.1,.17,.2,.23,.32,.08,.15,.13,.31,.17,.47"/><path class="cls-2" d="M558.96,176.53h.05c.28-.03,.46-.07,.55-.11-.08-.49-.63-2.75-.88-3.4-.21,.64-.56,2.85-.62,3.45,.13,.03,.46,.06,.75,.06h.15Z"/><path class="cls-2" d="M562.02,173.12s1.26,2.44,1.79,3.22c.06-.15,.12-.28,.18-.39,.06-.11,.13-.2,.2-.28-.1-.17-.22-.39-.36-.64-.62-.74-1.41-1.6-1.8-1.91"/><path class="cls-2" d="M564.47,175.39c.19-.15,.41-.26,.65-.33-.67-.8-1.7-2.12-2.33-2.68,.17,.41,1.1,2.05,1.6,2.92,.03,.03,.05,.07,.08,.1"/><path class="cls-2" d="M565.9,159.24l.44-.18s1.57-.56,2.09-.78c.73-.31,2.12-.99,2.78-1.52,1.78-1.41,2.32-3.4,2.84-4.03,1.82-.12,2.57-1.01,2.68-1.93,.07-.55-.51-1.81-.35-1.86,0,0,2.02-.45,2.48-1.14,.67-1.02,.29-2.32,.29-2.32,.03,0,1.78-.66,.75-3.22,.21,.52,4.15,.1,4.06-.16-.26-.73-1.29-1.64-2.35-2.28-1.33-.81-2.85-.97-3.82-.86-1.07,.12-2.14,.24-3.15,.64-1.49,.59-2.27,1.67-2.63,3.19-.41,1.69-.41,3.45-.6,5.18-.24,2.19-.87,4.27-2.58,5.77-1.38,1.21-3.2,2.17-5.03,2.49,.71,.76,2.08,3.02,2.08,3.02"/><path class="cls-2" d="M536.99,142.26c-1.03,2.56,.73,3.22,.75,3.22,0,0-.38,1.31,.29,2.32,.45,.69,2.48,1.14,2.48,1.14,.17,.05-.42,1.31-.35,1.86,.12,.92,.86,1.81,2.68,1.93,.52,.63,1.06,2.62,2.84,4.03,.67,.53,2.05,1.21,2.78,1.52,.51,.22,2.09,.78,2.09,.78l.44,.19s1.36-2.27,2.08-3.02c-1.88-.33-5.06-1.85-6.44-4.15-1.38-2.65-1.54-5.94-1.54-6.08-.14-2.3-.5-4.16-.57-4.34-.94-2.42-4.47-2.58-5.42-2.69-.97-.11-2.5,.05-3.82,.86-1.05,.65-2.09,1.55-2.35,2.28-.09,.26,3.85,.68,4.06,.16"/><path class="cls-2" d="M567.36,177.97c-.03,.07-.1,.11-.18,.1,0,0-.01,0-.02,0-.08-.03-.12-.11-.09-.19,0-.02,.02-.07,.03-.12,.03-.17,.05-.45-.03-.69-.02-.06-.04-.11-.07-.16-.01,.12-.06,.26-.18,.42,0,0,0,0,0,0,0,.01-.02,.02-.03,.03-.04,.03-.09,.05-.14,.05-.19-.01-.34-.08-.44-.21-.19-.23-.13-.58-.09-.81,0-.03,.02-.05,.03-.07h0s-.07-.02-.1-.02c-.08,0-.15-.07-.15-.15s.07-.15,.15-.15c.84,0,1.14,.48,1.32,.95,.14,.38,.07,.84,0,1m5.62,6.98s-.32-.56-.69-.96c-.55-.59-1.26-.97-1.82-1.28-.15-.08-.3-.16-.42-.23-.27-.16-.61-.36-.91-.71-.58-.69-.64-1.55-.69-2.23-.02-.19-.02-.37-.03-.55-.02-.43-.04-.84-.14-1.31-.13-.56-.35-1.03-.66-1.38-.39-.43-.9-.65-1.52-.65-.03,0-.05,0-.07,0h-.04c-.12,.01-.23,.04-.34,.07-.2,.07-.4,.17-.59,.3-.04,.03-.08,.06-.12,.09-.03,.02-.06,.05-.09,.08l-.02,.02c-.08,.07-.14,.14-.2,.21-.04,.06-.07,.1-.1,.14-.07,.11-.12,.21-.16,.3-.12,.36-.06,.7,.02,1.09l.02,.08c.13,.67,.66,1.51,.71,1.57,.28,.36,.56,.73,.74,1.16,.26,.61,.32,1.26,.17,1.87-.16,.69-.28,1.43-.38,2.09-.04,.27-.08,.53-.12,.77-.12,.68-.05,1.49,.18,2.34,.05,.17,.19,.62,.42,1.06,.4,.75,.88,1.4,1.43,1.94,.49-.17,1.02-.38,1.61-.64,.67-.29,1.3-.6,1.89-.89-.14-.13-.31-.29-.49-.48l-.05-.05c-.51-.53-1.09-1.13-1.58-2.07-.77-1.47-.56-2.28-.54-2.36,0-.01,.13-.42,.13-.42l.12-.38,.08,.59c.01,.07,.03,.24,.07,.45,.21,.86,.79,1.82,1.03,2.12,.8,.96,1.46,1.62,2.13,2.14,.31-.18,.65-.38,1.01-.63-.22-.97-.56-2.06-1.4-2.82-.07-.07-.34-.31-.34-.31l-.13-.12,.16-.09c.09-.05,.32-.07,.81,.4,.56,.52,1.18,1.74,1.43,2.59l.11-.07c.15-.1,.28-.19,.4-.28-.09-.44-.19-.85-.31-1.2-.2-.63-.7-1.36-.7-1.37"/><path class="cls-2" d="M551.64,104.5l5.4,3.37,1.41-6.15,1.41,6.15,5.4-3.37-3.41,5.33,6.23,1.39-6.23,1.39,3.41,5.33-5.4-3.37-1.41,6.15-1.41-6.15-5.4,3.37,3.41-5.33-6.23-1.39,6.23-1.39-3.41-5.33Zm1.42,8.92l-5.4,8.45,8.56-5.34,2.23,9.75,2.23-9.75,8.56,5.34-5.4-8.45,9.87-2.2-9.87-2.2,5.4-8.45-8.56,5.34-2.23-9.75-2.23,9.75-8.56-5.34,5.4,8.45-9.87,2.2,9.87,2.2Z"/><path class="cls-2" d="M543.89,46.2c-.99,0-1.8,.8-1.8,1.78s.81,1.77,1.8,1.77,1.8-.8,1.8-1.77-.81-1.78-1.8-1.78"/><path class="cls-2" d="M573.07,49.75c.99,0,1.8-.8,1.8-1.78s-.81-1.77-1.8-1.77-1.8,.8-1.8,1.77,.81,1.78,1.8,1.78"/><path class="cls-2" d="M558.66,49.75c.99,0,1.8-.8,1.8-1.78s-.81-1.77-1.8-1.77-1.8,.8-1.8,1.77,.81,1.78,1.8,1.78"/><path class="cls-2" d="M542.41,64.29c-.99,0-1.8,.8-1.8,1.78s.81,1.77,1.8,1.77,1.8-.8,1.8-1.77-.81-1.78-1.8-1.78"/><path class="cls-2" d="M574.44,64.29c-.99,0-1.8,.8-1.8,1.78s.81,1.77,1.8,1.77,1.8-.8,1.8-1.77-.81-1.78-1.8-1.78"/><path class="cls-2" d="M558.61,64.29c-.99,0-1.8,.8-1.8,1.78s.81,1.77,1.8,1.77,1.8-.8,1.8-1.77-.81-1.78-1.8-1.78"/><polygon class="cls-2" points="497.26 112.98 498.14 110.72 498.41 110.03 497.71 109.76 496.45 109.28 495.75 109.01 495.48 109.7 494.59 111.96 491.65 110.84 490.95 110.57 490.68 111.26 490.03 112.91 489.76 113.6 490.46 113.87 493.4 114.99 492.42 117.5 492.15 118.19 492.85 118.46 494.11 118.94 494.82 119.21 495.09 118.52 496.07 116.01 498.45 116.93 499.16 117.2 499.43 116.5 500.07 114.86 500.35 114.16 499.64 113.89 497.26 112.98"/><polygon class="cls-2" points="619.4 116.27 619.59 116.99 620.32 116.8 622.79 116.17 623.41 118.51 623.6 119.23 624.33 119.04 625.63 118.71 626.36 118.52 626.31 118.3 626.33 118.3 626.12 117.57 625.56 115.46 628.61 114.68 629.34 114.49 629.15 113.77 628.71 112.06 628.52 111.34 627.79 111.53 624.74 112.31 624.06 109.71 623.87 108.99 623.14 109.18 621.83 109.51 621.1 109.7 621.29 110.42 621.97 113.02 619.49 113.65 618.76 113.84 618.95 114.56 619.4 116.27"/><path class="cls-2" d="M550.61,177.59c-.06,.15-.18,.25-.37,.32-.05,.02-.1,.02-.15,0-.01,0-.03-.01-.04-.02,0,0,0,0,0,0-.16-.12-.25-.25-.3-.35,0,.05-.02,.11-.02,.17-.02,.24,.07,.51,.15,.67,.02,.04,.04,.08,.06,.1,.05,.07,.03,.16-.03,.21-.03,.02-.06,.03-.09,.03-.05,0-.09-.02-.12-.06-.1-.14-.3-.56-.27-.97,.04-.5,.19-1.04,1.01-1.27,.08-.02,.16,.02,.18,.1,.02,.08-.02,.16-.1,.18-.04,.01-.07,.02-.1,.03h0s.04,.05,.05,.07c.1,.21,.25,.53,.14,.8m1.72-.93c-.25-.38-.71-.63-1.28-.68-.07,0-.15,0-.22,0-.26,0-.51,.04-.75,.13l-.05,.02s-.04,.01-.07,.02c-.32,.13-.76,.32-1.21,.95-.3,.43-.31,.8-.34,1.6v.32c-.02,.28-.02,.41,0,.5,0,.11,.01,.19,0,.4-.05,.69-.11,1.54-.7,2.23-.43,.51-1.04,.83-1.62,1.14-.44,.23-.89,.47-1.26,.79-.51,.43-.92,1.01-1.28,1.76-.24,.51-.41,1.03-.53,1.57,.14,.09,.27,.16,.41,.24,.08,.05,.17,.09,.25,.14,.19-.84,.89-2.25,1.49-2.81,.49-.46,.72-.45,.81-.4l.16,.09-.48,.43c-.81,.74-1.23,2.02-1.43,2.95,0,0,0,.01,0,.02,.32,.15,.64,.3,.99,.45,.09,.04,.18,.07,.26,.1l.04,.02c.54-.43,1.1-1.02,1.92-2,.25-.3,.82-1.26,1.03-2.12,.04-.21,.06-.38,.07-.45l.08-.59,.12,.38s.12,.4,.13,.42c.03,.09,.23,.9-.54,2.37-.5,.95-1.08,1.55-1.59,2.07l-.04,.05c-.08,.08-.16,.16-.23,.23l.26,.1c.2,.07,.4,.14,.59,.21,.19,.07,.36,.12,.53,.17,.34,.11,.65,.19,1,.29,.37,.1,.79,.22,1.33,.38,.45-.63,.76-1.23,.94-1.83,.22-.73,.29-1.54,.2-2.48-.07-.81-.23-1.68-.5-2.82-.14-.61-.09-1.26,.17-1.87,.18-.44,.47-.81,.74-1.16,.05-.07,.11-.14,.16-.21l.03-.05c.88-1.16,.82-2.41,.39-3.07"/></g></g></g></svg>